<?xml version="1.0" encoding="UTF-8"?>
<svg width="1147px" height="598px" viewBox="0 0 1147 598" version="1.1" xmlns="http://www.w3.org/2000/svg" xmlns:xlink="http://www.w3.org/1999/xlink">
    <!-- Generator: Sketch 50.2 (55047) - http://www.bohemiancoding.com/sketch -->
    <title>Homepage</title>
    <desc>Created with Sketch.</desc>
    <defs>
        <path d="M954.251686,332.803687 C971.290309,322.154565 991.426417,316 1013,316 C1074.30361,316 1124,365.696393 1124,427 C1124,488.303607 1074.30361,538 1013,538 C975.968348,538 943.172172,519.865776 923.007283,491.993142 C903.243249,506.459251 878.869024,515 852.5,515 C804.498445,515 763.107197,486.697911 744.10308,445.870557 C724.786354,467.432469 696.727611,481 665.5,481 C633.600929,481 605.008465,466.842734 585.663048,444.468643 C580.811147,512.398029 524.165279,566 455,566 C406.977961,566 364.991082,540.160406 342.184609,501.626463 C327.332201,511.347676 309.576186,517 290.5,517 C255.476055,517 224.902286,497.946529 208.578581,469.639473 C192.803751,488.213876 169.278274,500 143,500 C107.15629,500 76.4341893,478.071787 63.5169719,446.898637 C62.3532188,446.965902 61.1805914,447 60,447 C26.862915,447 0,420.137085 0,387 C0,353.862915 26.862915,327 60,327 C74.4637613,327 87.7321861,332.117844 98.0931682,340.641425 C111.163813,332.62307 126.542019,328 143,328 C172.835545,328 199.122561,343.193061 214.546381,366.264518 C231.764465,343.047472 259.37497,328 290.5,328 C314.729003,328 336.828308,337.118325 353.553527,352.110589 C377.576811,322.744017 414.099456,304 455,304 C464.439536,304 473.645883,304.998403 482.519201,306.89537 C492.760059,288.468715 512.423918,276 535,276 C556.969431,276 576.181046,287.807614 586.634953,305.422951 C605.959507,283.690727 634.130933,270 665.5,270 C704.7972,270 739.07618,291.485553 757.230641,323.350359 C779.052234,294.580974 813.606207,276 852.5,276 C895.504433,276 933.20323,298.716129 954.251682,332.803679 Z" id="path-1"></path>
        <filter x="-1.4%" y="-5.4%" width="102.8%" height="110.8%" filterUnits="objectBoundingBox" id="filter-2">
            <feMorphology radius="3" operator="erode" in="SourceAlpha" result="shadowSpreadInner1"></feMorphology>
            <feGaussianBlur stdDeviation="1.5" in="shadowSpreadInner1" result="shadowBlurInner1"></feGaussianBlur>
            <feOffset dx="7" dy="14" in="shadowBlurInner1" result="shadowOffsetInner1"></feOffset>
            <feComposite in="shadowOffsetInner1" in2="SourceAlpha" operator="arithmetic" k2="-1" k3="1" result="shadowInnerInner1"></feComposite>
            <feColorMatrix values="0 0 0 0 0.882352941   0 0 0 0 0.882352941   0 0 0 0 0.984313725  0 0 0 1 0" type="matrix" in="shadowInnerInner1"></feColorMatrix>
        </filter>
    </defs>
    <g id="Homepage" stroke="none" stroke-width="1" fill="none" fill-rule="evenodd">
        <g id="Group" transform="translate(11.000000, 13.000000)">
            <polygon id="Path-3" stroke="#262425" stroke-width="12" fill="#E1E1FB" stroke-linecap="round" stroke-linejoin="round" points="727.173114 227.16705 705.776465 330.797716 815.262836 330.797716 796.574711 227.16705"></polygon>
            <g id="Combined-Shape">
                <use fill="#C8C8DF" fill-rule="evenodd" xlink:href="#path-1"></use>
                <use fill="black" fill-opacity="1" filter="url(#filter-2)" xlink:href="#path-1"></use>
                <use stroke="#262425" stroke-width="12" xlink:href="#path-1"></use>
            </g>
            <g id="badge-1-hw-01" transform="translate(662.000000, 0.000000)" fill-rule="nonzero">
                <path d="M22,173 L22,236 L47,236 L47,131 C46.9982348,135.842722 45.0256773,140.487177 41.5147679,143.915171 L29.3136428,155.768352 C24.6393214,160.348147 22.0107517,166.541311 22,173 Z" id="Shape" fill="#F2F1DC"></path>
                <path d="M46.1072658,242 L22.0283356,242 C18.6990531,242 16.0001365,239.251151 16.0001365,235.860275 L16.0001365,172.427945 C15.9760297,164.299297 19.1468395,156.49888 24.8053711,150.766443 L36.5569728,138.797428 C38.7716562,136.485259 39.9904224,133.36956 39.9436015,130.139725 C39.9436015,126.748849 42.6425182,124 45.9718007,124 C49.3010831,124 51.9999998,126.748849 51.9999998,130.139725 L51.9999998,235.860275 C52.0008273,239.197993 49.383528,241.924995 46.1072658,242 Z M28.0565347,229.72055 L40.0790667,229.72055 L40.0790667,152.56007 L33.3058092,159.458638 C29.908376,162.899346 28.0056351,167.582708 28.0226684,172.462438 L28.0565347,229.72055 Z" id="Shape" fill="#262425"></path>
                <path d="M169.999994,173 L170,236 L145,236 L145,131 C145.017022,135.839753 146.987271,140.478775 150.485231,143.915171 L162.686353,155.768352 C167.373705,160.339684 170.004603,166.538335 169.999994,173 Z" id="Shape" fill="#D7D6C1"></path>
                <path d="M169.104366,242 L145.014145,242 C141.696541,241.981099 139.016949,239.24845 139.017001,235.88411 L139.017001,130.573974 C138.847521,128.285842 139.955298,126.094023 141.886004,124.897439 C143.81671,123.700854 146.245463,123.700854 148.176169,124.897439 C150.106874,126.094023 151.214651,128.285842 151.045171,130.573974 C150.998328,133.791271 152.217666,136.894874 154.433388,139.198066 L166.1905,151.120617 C171.851685,156.8308 175.023982,164.600936 174.999863,172.698028 L174.999863,235.88411 C175.000691,239.20887 172.382165,241.925286 169.104366,242 Z M151.045171,229.768219 L163.10723,229.768219 L163.107223,172.698028 C163.111521,167.833032 161.195979,163.168565 157.787722,159.74471 L151.011289,152.872923 L151.045171,229.768219 Z" id="Shape" fill="#262425"></path>
                <path d="M101.341772,7.78504529 L110.128691,16.5625435 C133.104119,39.5122867 146.008086,70.6417689 145.999996,103.09835 L146,236 L48,236 L48.0000038,103.09835 C47.9919139,70.6417689 60.8958806,39.5122867 83.871309,16.5625435 L92.6582282,7.78504529 C95.0624313,5.4049849 98.9375687,5.4049849 101.341772,7.78504529 Z" id="Shape" fill="#EE3E23"></path>
                <path d="M97,8.97845702 L110.128691,16.5625435 C133.104119,39.5122867 146.008086,70.6417689 145.999996,103.09835 L146,230.677587 L97,230.677587 C95.3971979,81.2914602 95.3971979,7.3917501 97,8.97845702 Z" id="Shape" fill="#C1331E"></path>
                <path d="M144.880805,242 L47.1194002,242 C43.7401457,242 41.0007187,239.258221 41.0007187,235.876064 L41.0007187,103.041703 C40.8863225,68.9591991 54.4325486,36.2542727 78.6065475,12.2491932 L87.3720743,3.44173489 C89.6763178,1.19187902 92.7813376,-0.0462429654 96.0001026,0.00132148768 C99.2272449,-0.0365383636 102.339387,1.19949914 104.662506,3.44173489 L113.428032,12.2491932 C137.566633,36.2752532 151.096055,68.9694939 150.999487,103.041703 L150.999487,235.876064 C150.999487,239.258221 148.26006,242 144.880805,242 Z M53.2376362,229.752128 L138.796819,229.752128 L138.796498,103.041703 C138.869122,72.2066016 126.615308,42.6235357 104.765629,20.8846308 L96.0001026,12.2491932 L87.2345758,21.0222474 C65.3942622,42.764651 53.1525309,72.348431 53.2380816,103.179319 L53.2376362,229.752128 Z" id="Shape" fill="#262425"></path>
                <path d="M178.958447,236.547112 L149.391823,236.547112 C135.854327,236.717386 123.033389,242.660423 114.152532,252.881984 C109.503829,258.049305 102.880847,261 95.9312404,261 C88.981634,261 82.3586515,258.049305 77.7099486,252.881984 C68.8397334,242.665717 56.0314889,236.722767 42.5050377,236.547112 L13.0415526,236.547112 C10.6072191,236.529574 8.41758944,235.062506 7.47491195,232.817421 C6.53223447,230.572337 7.01793582,227.981322 8.70969837,226.23035 L64.336208,170.347891 C68.8941196,165.784328 71.4644377,159.603987 71.4872056,153.153288 L71.4872056,121.240105 C71.4817084,105.033501 77.9268967,89.4915194 89.3990792,78.0472623 L91.5993861,75.8119639 C92.7428581,74.6526301 94.303098,74 95.9312404,74 C97.5593828,74 99.1196227,74.6526301 100.263095,75.8119639 L102.497781,78.0472623 C113.947729,89.5035967 120.378528,105.040702 120.375275,121.240105 L120.375275,153.05012 C120.395898,159.508024 122.980588,165.693187 127.560653,170.244723 L183.290302,226.23035 C184.982064,227.981322 185.467766,230.572337 184.525088,232.817421 C183.582411,235.062506 181.392781,236.529574 178.958447,236.547112 Z M178.958447,236.547112 L149.391823,236.547112 C135.854327,236.717386 123.033389,242.660423 114.152532,252.881984 C109.503829,258.049305 102.880847,261 95.9312404,261 C88.981634,261 82.3586515,258.049305 77.7099486,252.881984 C68.8397334,242.665717 56.0314889,236.722767 42.5050377,236.547112 L13.0415526,236.547112 C10.6072191,236.529574 8.41758944,235.062506 7.47491195,232.817421 C6.53223447,230.572337 7.01793582,227.981322 8.70969837,226.23035 L64.336208,170.347891 C68.8941196,165.784328 71.4644377,159.603987 71.4872056,153.153288 L71.4872056,121.240105 C71.4817084,105.033501 77.9268967,89.4915194 89.3990792,78.0472623 L91.5993861,75.8119639 C92.7428581,74.6526301 94.303098,74 95.9312404,74 C97.5593828,74 99.1196227,74.6526301 100.263095,75.8119639 L102.497781,78.0472623 C113.947729,89.5035967 120.378528,105.040702 120.375275,121.240105 L120.375275,153.05012 C120.395898,159.508024 122.980588,165.693187 127.560653,170.244723 L183.290302,226.23035 C184.982064,227.981322 185.467766,230.572337 184.525088,232.817421 C183.582411,235.062506 181.392781,236.529574 178.958447,236.547112 Z M178.958447,236.547112 L149.391823,236.547112 C135.854327,236.717386 123.033389,242.660423 114.152532,252.881984 C109.503829,258.049305 102.880847,261 95.9312404,261 C88.981634,261 82.3586515,258.049305 77.7099486,252.881984 C68.8397334,242.665717 56.0314889,236.722767 42.5050377,236.547112 L13.0415526,236.547112 C10.6072191,236.529574 8.41758944,235.062506 7.47491195,232.817421 C6.53223447,230.572337 7.01793582,227.981322 8.70969837,226.23035 L64.336208,170.347891 C68.8941196,165.784328 71.4644377,159.603987 71.4872056,153.153288 L71.4872056,121.240105 C71.4817084,105.033501 77.9268967,89.4915194 89.3990792,78.0472623 L91.5993861,75.8119639 C92.7428581,74.6526301 94.303098,74 95.9312404,74 C97.5593828,74 99.1196227,74.6526301 100.263095,75.8119639 L102.497781,78.0472623 C113.947729,89.5035967 120.378528,105.040702 120.375275,121.240105 L120.375275,153.05012 C120.395898,159.508024 122.980588,165.693187 127.560653,170.244723 L183.290302,226.23035 C184.982064,227.981322 185.467766,230.572337 184.525088,232.817421 C183.582411,235.062506 181.392781,236.529574 178.958447,236.547112 Z" id="Shape" fill="#F2F1DC"></path>
                <path d="M94.9313721,268 C86.2395068,267.957321 77.9775191,264.189576 72.2155309,257.640809 C64.49012,248.717343 53.3665183,243.509446 41.6074791,243.310596 L12.2004159,243.310596 C7.26889456,243.304217 2.8248625,240.314503 0.933984243,235.731128 C-0.956894013,231.147752 0.0762915741,225.869778 3.55329811,222.3505 L59.0732845,166.479933 C62.5254377,163.042077 64.4551123,158.34925 64.4262621,153.461883 L64.4262621,121.521046 C64.4332308,103.585652 71.5758795,86.3997143 84.2597307,73.799708 L86.3185683,71.5552168 C91.0675819,66.8149277 98.7265343,66.8149277 103.475548,71.5552168 L105.671641,73.799708 C118.346534,86.4001312 125.46684,103.591798 125.436482,121.521046 L125.436482,153.461883 C125.407632,158.34925 127.337306,163.042077 130.78946,166.479933 L186.446702,222.488623 C189.923708,226.0079 190.956894,231.285875 189.066016,235.86925 C187.175138,240.452626 182.731105,243.442339 177.799584,243.448718 L148.289579,243.448718 C136.518514,243.637836 125.38058,248.846604 117.647213,257.778932 C111.860412,264.276474 103.601834,267.992449 94.9313721,268 Z M41.6074791,231.155812 C56.8393536,231.365479 71.2680375,238.066922 81.3087302,249.595171 C84.7837658,253.482474 89.7354169,255.702355 94.9313721,255.702355 C100.127327,255.702355 105.078978,253.482474 108.554014,249.595171 C118.60267,238.058045 133.045692,231.355736 148.289579,231.155812 L177.868212,231.155812 L122.176656,175.147122 C116.428749,169.401303 113.203847,161.580337 113.220712,153.427353 L113.220712,121.521046 C113.264823,106.867334 107.482318,92.8047069 97.1617794,82.4668975 L94.9313721,80.2569368 L92.7009647,82.4668975 C82.3804259,92.8047069 76.5979214,106.867334 76.6420317,121.521046 L76.6420317,153.461883 C76.6497348,161.602902 73.4255364,169.409731 67.6860883,175.147122 L12.2004159,231.155812 L41.6074791,231.155812 Z" id="Shape" fill="#262425"></path>
                <path d="M71,206 L71,121.249015 C71.0005237,105.030451 77.4588498,89.4770604 88.9528833,78.01363 L91.1582278,75.8123057 C92.3043178,74.6527532 93.8681299,74 95.5,74 C97.1318701,74 98.6956822,74.6527532 99.8417722,75.8123057 L102.081575,78.01363 C113.550158,89.4912284 119.993504,105.038386 120,121.249015 L120,206" id="Shape" fill="#F2F1DC"></path>
                <path d="M119.893052,213 C116.520331,213 113.7862,210.242873 113.7862,206.841784 L113.7862,121.595472 C113.830303,106.913718 108.048776,92.8241783 97.7299822,82.466585 L95.499952,80.2177984 L93.2699218,82.466585 C82.9511279,92.8241783 77.1696012,106.913718 77.2137041,121.595472 L77.2137041,206.841784 C77.2137041,210.242873 74.4795733,213 71.106852,213 C67.7341308,213 65,210.242873 65,206.841784 L65,121.595472 C65.0069675,103.625755 72.1484084,86.4069282 84.830115,73.7828089 L86.8886045,71.5340223 C91.6520011,66.8219926 99.2792866,66.8219926 104.042683,71.5340223 L106.272713,73.8174056 C118.924386,86.4392506 126.030124,103.64892 125.999904,121.595472 L125.999904,206.841784 C125.999904,210.242873 123.265773,213 119.893052,213 Z" id="Shape" fill="#262425"></path>
                <path d="M88,114 C90.0258928,109.265099 92.7233412,104.881745 96,101 C99.2766588,104.881745 101.974107,109.265099 104,114" id="Shape" fill="#F2F1DC"></path>
                <path d="M88.0555464,115.812777 C87.6311187,115.816531 87.2102985,115.732504 86.8181654,115.565705 C86.0733244,115.226252 85.4911603,114.595652 85.2007917,113.813767 C84.9104231,113.031881 84.9358523,112.163341 85.2714393,111.400781 C87.4009865,106.539371 90.2407145,102.040261 93.6925038,98.0589056 C94.2626277,97.3838087 95.0908442,96.9972234 95.9610355,97.0000266 C96.8412738,96.9963093 97.6804127,97.3821468 98.2639389,98.0589056 C101.704858,102.041652 104.533049,106.540848 106.650632,111.400781 C107.177901,112.434259 107.103955,113.682686 106.458596,114.642922 C105.813236,115.603158 104.702789,116.117001 103.574785,115.977362 C102.446781,115.837722 101.487064,115.067606 101.082418,113.977387 C99.7241646,110.814806 98.0050008,107.82904 95.9610355,105.082803 C93.9417725,107.846064 92.2243369,110.828828 90.8396534,113.977387 C90.3485611,115.102348 89.256049,115.822574 88.0555464,115.812777 Z" id="Shape" fill="#262425"></path>
            </g>
        </g>
    </g>
</svg>