<?xml version="1.0" encoding="UTF-8"?>
<svg width="143px" height="144px" viewBox="0 0 143 144" version="1.1" xmlns="http://www.w3.org/2000/svg" xmlns:xlink="http://www.w3.org/1999/xlink">
    <!-- Generator: Sketch 50.2 (55047) - http://www.bohemiancoding.com/sketch -->
    <title>logo-white</title>
    <desc>Created with Sketch.</desc>
    <defs></defs>
    <g id="logo-white" stroke="none" stroke-width="1" fill="none" fill-rule="evenodd">
        <g id="badge-1-hw-01" fill-rule="nonzero">
            <path d="M124.27,112.8 C112.923244,127.308589 96.1303258,136.538008 77.8,138.34 C75.6,138.56 73.37,138.67 71.11,138.67 C51.3439929,138.695425 32.5634077,130.041805 19.74,115 C21.9257992,110.997209 25.7159057,108.117443 30.1580425,107.084255 C34.6001794,106.051067 39.2721114,106.962662 43,109.59 C43.8905331,106.411691 46.4704454,103.989569 49.698563,103.301128 C52.9266807,102.612687 56.2702853,103.771536 58.38,106.31 L60.44,96 L81.78,96 L84.05,107.34 C88.4716584,106.091708 93.2046622,106.600479 97.26,108.76 C99.2492608,105.01839 103.265797,102.810323 107.490837,103.13566 C111.715877,103.460997 115.347017,106.25795 116.74,110.26 C119.424185,110.457378 122.014688,111.3312 124.27,112.8 Z" id="Shape"></path>
            <path d="M71.11,140.44 C50.8258982,140.452054 31.556358,131.570228 18.39,116.14 C17.9167394,115.579369 17.8335096,114.786704 18.18,114.14 C22.8637324,105.576086 33.5731949,102.385558 42.18,106.99 C43.5738228,104.377406 45.9915515,102.462294 48.8538452,101.703568 C51.7161389,100.944842 54.7650527,101.410877 57.27,102.99 L58.73,95.67 C58.8998807,94.8424538 59.6252208,94.246341 60.47,94.24 L81.78,94.24 C82.6261675,94.2424968 83.3536217,94.8403471 83.52,95.67 L85.43,105.22 C89.1944952,104.553736 93.0714628,104.994932 96.59,106.49 C99.190789,102.906803 103.498899,100.974449 107.904499,101.415009 C112.310099,101.855569 116.150256,104.60275 117.99,108.63 C120.574749,108.99012 123.049335,109.91169 125.24,111.33 C125.658244,111.601453 125.94172,112.037571 126.02,112.53 C126.10846,113.0221 125.980956,113.528472 125.67,113.92 C114.024573,128.795076 96.8003794,138.258085 78,140.11 C75.72,140.33 73.41,140.44 71.11,140.44 Z M21.93,114.79 C34.4093893,128.849624 52.3108464,136.893996 71.11,136.89 C73.29,136.89 75.48,136.78 77.63,136.57 C81.5790928,136.178755 85.4848904,135.432403 89.3,134.34 C101.917807,130.737586 113.158897,123.420075 121.56,113.34 C119.985442,112.611696 118.290828,112.177875 116.56,112.06 C115.851343,112.010324 115.241046,111.541774 115.01,110.87 C113.846426,107.535785 110.819683,105.206416 107.298682,104.935403 C103.777681,104.66439 100.430117,106.503125 98.77,109.62 C98.3065149,110.481489 97.2346794,110.807506 96.37,110.35 C92.7236029,108.394406 88.4590765,107.935315 84.48,109.07 C84.0016766,109.201853 83.4900831,109.129256 83.0673259,108.869535 C82.6445687,108.609814 82.3485779,108.186273 82.25,107.7 L80.25,97.8 L61.9,97.8 L60.13,106.68 C59.9945977,107.350765 59.4866626,107.884525 58.8234306,108.052999 C58.1601987,108.221473 57.4591063,107.994829 57.02,107.47 C55.3312993,105.439909 52.6566048,104.512932 50.0738154,105.06264 C47.491026,105.612348 45.4256378,107.548181 44.71,110.09 C44.5393262,110.628631 44.1217509,111.053411 43.5861177,111.233274 C43.0504844,111.413136 42.4611669,111.326463 42,111 C38.8640628,108.80236 34.9747476,107.961361 31.2110115,108.667061 C27.4472753,109.372762 24.126804,111.565596 22,114.75 L21.93,114.79 Z" id="Shape" fill="#FFFFFF"></path>
            <path d="M71.11,5.69 C97.5705877,5.68913087 121.426081,21.6282124 131.552227,46.0745591 C141.678374,70.5209058 136.080896,98.6599736 117.37,117.37 C91.8213075,142.918693 50.3986925,142.918693 24.85,117.37 C-0.698692527,91.8213075 -0.698692527,50.3986925 24.85,24.85 C37.0927129,12.5421111 53.7501056,5.64294021 71.11,5.69 Z M71.11,0 C31.8370314,3.81247318e-15 4.80955152e-15,31.8370314 0,71.11 C-4.80955152e-15,110.382969 31.8370314,142.22 71.11,142.22 C110.382969,142.22 142.22,110.382969 142.22,71.11 C142.22,52.2504554 134.728075,34.1633487 121.392363,20.8276368 C108.056651,7.49192492 89.9695446,7.37206298e-15 71.11,0 Z" id="Shape" fill="#FFFFFF"></path>
            <path d="M64,137.41 C61.157374,140.628393 57.013445,142.391067 52.7233905,142.206653 C48.4333359,142.022239 44.4559559,139.910459 41.9,136.46 C35.0367116,140.498645 26.2480874,138.875291 21.2804123,132.651338 C16.3127371,126.427386 16.6783044,117.497573 22.1380946,111.700499 C27.5978847,105.903424 36.4897912,105.003873 43,109.59 C43.8928141,106.421439 46.4634808,104.005631 49.6813361,103.311152 C52.8991913,102.616672 56.2373938,103.757225 58.3575495,106.275525 C60.4777052,108.793824 61.0326929,112.277565 59.8,115.33" id="Shape"></path>
            <path d="M53.33,144 C48.8009981,143.991803 44.486263,142.070511 41.45,138.71 C33.8890445,142.32378 24.8311469,140.167409 19.7096034,133.534367 C14.5880598,126.901326 14.793422,117.592552 20.2025053,111.191828 C25.6115886,104.791104 34.7557713,103.036292 42.15,106.98 C44.85204,102.046577 50.9198606,100.058043 56.0177393,102.435292 C61.1156181,104.812542 63.4925003,110.73902 61.45,115.98 C61.0799692,116.89127 60.0412698,117.330031 59.13,116.96 C58.2187302,116.589969 57.7799693,115.55127 58.15,114.64 C59.1217192,112.20131 58.670604,109.425607 56.9766104,107.420157 C55.2826167,105.414706 52.6214098,104.505857 50.0545805,105.05616 C47.4877512,105.606464 45.4330021,107.526369 44.71,110.05 C44.5597153,110.605908 44.1441226,111.051453 43.6,111.24 C43.0593226,111.424404 42.4627784,111.334922 42,111 C36.2150375,106.907338 28.3003331,107.694814 23.4352011,112.847111 C18.5700691,117.999408 18.2372878,125.946227 22.6546263,131.487237 C27.0719649,137.028247 34.8931221,138.474679 41,134.88 C41.7883066,134.420046 42.7964344,134.626841 43.34,135.36 C45.57633,138.3803 49.0572906,140.22882 52.8119435,140.389955 C56.5665964,140.551091 60.1931294,139.007598 62.68,136.19 C63.0997871,135.714837 63.7411829,135.499722 64.3625798,135.625686 C64.9839768,135.751651 65.49097,136.199558 65.6925798,136.800686 C65.8941897,137.401814 65.7597871,138.064837 65.34,138.54 C62.3082491,142.002593 57.9322821,143.992 53.33,144 Z" id="Shape" fill="#FFFFFF"></path>
            <path d="M86.6479293,115.114321 C85.5687065,115.115512 84.6396735,114.612254 84.4323663,113.914149 L79.008057,96.012278 C78.78497,95.2102557 79.5787634,94.4384746 80.7916728,94.2781228 C82.0045822,94.1177711 83.1885163,94.6280882 83.4519161,95.4247811 L88.9271579,113.343438 C89.169321,114.154082 88.3729216,114.941482 87.144521,115.105929 C86.9798009,115.119386 86.8134793,115.122197 86.6479293,115.114321 Z" id="Shape" fill="#FFFFFF" transform="translate(83.970521, 104.683676) rotate(5.000000) translate(-83.970521, -104.683676) "></path>
            <path d="M90.67,129.78 C89.9957851,129.779054 89.3799707,129.397265 89.0792996,128.793805 C88.7786285,128.190346 88.8447125,127.468803 89.25,126.93 C90.1783066,125.704469 90.6773269,124.207409 90.67,122.67 C90.664492,118.745539 87.4844608,115.565508 83.56,115.56 C82.0168514,115.556217 80.5156999,116.06246 79.29,117 C78.7808965,117.382274 78.1065247,117.463907 77.5209138,117.214147 C76.9353029,116.964388 76.5274212,116.421181 76.4509138,115.789147 C76.3744064,115.157114 76.6408965,114.532274 77.15,114.15 C81.3979923,110.95776 87.3474713,111.377765 91.1048529,115.135147 C94.8622346,118.892529 95.2822399,124.842008 92.09,129.09 C91.7491406,129.52759 91.2246746,129.782436 90.67,129.78 Z" id="Shape" fill="#FFFFFF"></path>
            <rect id="Rectangle-path" fill="#FFFFFF" transform="translate(46.225843, 37.333821) rotate(-45.000000) translate(-46.225843, -37.333821) " x="43.7108426" y="34.8188207" width="5.03" height="5.03" rx="1.78"></rect>
            <rect id="Rectangle-path" fill="#FFFFFF" transform="translate(35.563260, 80.000896) rotate(-45.000000) translate(-35.563260, -80.000896) " x="33.0482596" y="77.4858964" width="5.03" height="5.03" rx="1.78"></rect>
            <rect id="Rectangle-path" fill="#FFFFFF" transform="translate(23.108772, 60.446296) rotate(-45.000000) translate(-23.108772, -60.446296) " x="19.3387716" y="56.6762961" width="7.54" height="7.54" rx="1.78"></rect>
            <rect id="Rectangle-path" fill="#FFFFFF" transform="translate(106.659785, 49.772695) rotate(-45.000000) translate(-106.659785, -49.772695) " x="104.144785" y="47.2576952" width="5.03" height="5.03" rx="1.78"></rect>
            <rect id="Rectangle-path" fill="#FFFFFF" transform="translate(119.114502, 72.887525) rotate(-45.000000) translate(-119.114502, -72.887525) " x="115.344502" y="69.1175246" width="7.54" height="7.54" rx="1.78"></rect>
            <path d="M49.78,77.61 L49.78,96 L56.89,96 L56.89,65.35 C56.889498,66.7636135 56.3285026,68.1193523 55.33,69.12 L51.86,72.58 C50.530623,73.916864 49.7830578,75.724678 49.78,77.61 Z" id="Shape"></path>
            <path d="M56.89,97.78 L49.78,97.78 C48.7969331,97.78 48,96.9830669 48,96 L48,77.61 C47.9928818,75.2533809 48.929155,72.991921 50.6,71.33 L54.07,67.86 C54.7239493,67.1896671 55.0838252,66.2863785 55.07,65.35 C55.07,64.3669331 55.8669331,63.57 56.85,63.57 C57.8330669,63.57 58.63,64.3669331 58.63,65.35 L58.63,96 C58.6302444,96.9676554 57.8574111,97.758255 56.89,97.78 Z M51.56,94.22 L55.11,94.22 L55.11,71.85 L53.11,73.85 C52.1068097,74.8475137 51.5449704,76.2052918 51.55,77.62 L51.56,94.22 Z" id="Shape" fill="#FFFFFF"></path>
            <path d="M92.44,77.61 L92.4400017,96 L85.33,96 L85.33,65.35 C85.334841,66.762747 85.89518,68.1168995 86.89,69.12 L90.36,72.58 C91.6930832,73.9143936 92.4413108,75.7238093 92.44,77.61 Z" id="Shape"></path>
            <path d="M92.44,97.78 L85.33,97.78 C84.3508406,97.774499 83.5599845,96.9791748 83.56,96 L83.56,65.35 C83.5099795,64.6840505 83.8369293,64.0461323 84.4067588,63.6978722 C84.9765883,63.349612 85.6934117,63.349612 86.2632412,63.6978722 C86.8330707,64.0461323 87.1600205,64.6840505 87.11,65.35 C87.0961748,66.2863785 87.4560507,67.1896671 88.11,67.86 L91.58,71.33 C93.250845,72.991921 94.1871182,75.2533809 94.18,77.61 L94.18,96 C94.1802444,96.9676554 93.4074111,97.758255 92.44,97.78 Z M87.11,94.22 L90.6700021,94.22 L90.67,77.61 C90.6712687,76.1940666 90.1059145,74.8364963 89.1,73.84 L87.1,71.84 L87.11,94.22 Z" id="Shape" fill="#FFFFFF"></path>
            <path d="M72.37,29.7 L74.92,32.25 C81.5875636,38.9172579 85.3323477,47.9608575 85.33,57.39 L85.3300011,96 L56.8899989,96 L56.89,57.39 C56.8876523,47.9608575 60.6324364,38.9172579 67.3,32.25 L69.85,29.7 C70.5477096,29.0085554 71.6722904,29.0085554 72.37,29.7 Z" id="Shape"></path>
            <path d="M85.33,97.78 L56.89,97.78 C55.9069331,97.78 55.11,96.9830669 55.11,96 L55.11,57.39 C55.0767207,47.4834859 59.0174852,37.9773823 66.05,31 L68.6,28.44 C69.2703329,27.7860507 70.1736215,27.4261748 71.11,27.44 C72.0488155,27.4289956 72.9541761,27.7882656 73.63,28.44 L76.18,31 C83.202217,37.9834805 87.1380929,47.4864782 87.11,57.39 L87.11,96 C87.11,96.9830669 86.3130669,97.78 85.33,97.78 Z M58.6698704,94.22 L83.5600934,94.22 L83.56,57.39 C83.5811271,48.4273849 80.0163414,39.8286897 73.66,33.51 L71.11,31 L68.56,33.55 C62.2063831,39.8697067 58.6451122,48.4686094 58.67,57.43 L58.6698704,94.22 Z" id="Shape" fill="#FFFFFF"></path>
            <path d="M95.26,96 L86.66,96 C82.7223688,96.0495138 78.9931615,97.7776831 76.41,100.75 C75.0578387,102.2526 73.1314217,103.110629 71.11,103.110629 C69.0885783,103.110629 67.1621613,102.2526 65.81,100.75 C63.2299337,97.7792227 59.5044187,96.0510785 55.57,96 L47,96 C46.291929,95.9949002 45.6550347,95.5682931 45.3808395,94.9154474 C45.1066443,94.2626017 45.2479195,93.5091634 45.74,93 L61.92,76.75 C63.2457529,75.4229664 63.9933776,73.6257919 64,71.75 L64,62.47 C63.998401,57.7572991 65.8731034,53.2378632 69.21,49.91 L69.85,49.26 C70.1826,48.9228786 70.6364246,48.733101 71.11,48.733101 C71.5835754,48.733101 72.0374,48.9228786 72.37,49.26 L73.02,49.91 C76.3504291,53.2413751 78.2209461,57.7593931 78.22,62.47 L78.22,71.72 C78.2259984,73.597887 78.9778035,75.3964638 80.31,76.72 L96.52,93 C97.0120805,93.5091634 97.1533557,94.2626017 96.8791605,94.9154474 C96.6049653,95.5682931 95.968071,95.9949002 95.26,96 Z" id="Shape" fill="#FFFFFF"></path>
            <path d="M71.11,104.89 C68.5769594,104.87764 66.1691965,103.786509 64.49,101.89 C62.2386099,99.3057827 58.9968966,97.7975865 55.57,97.74 L47,97.74 C45.5628236,97.7381526 44.2677145,96.8723378 43.7166623,95.5450018 C43.1656101,94.2176658 43.4667079,92.6891754 44.48,91.67 L60.66,75.49 C61.6660492,74.4944041 62.2284077,73.1353711 62.22,71.72 L62.22,62.47 C62.2220309,57.2759472 64.3035886,52.2989356 68,48.65 L68.6,48 C69.9839888,46.6272222 72.2160112,46.6272222 73.6,48 L74.24,48.65 C77.9338005,52.2990563 80.0088472,57.2777273 80,62.47 L80,71.72 C79.9915923,73.1353711 80.5539508,74.4944041 81.56,75.49 L97.78,91.71 C98.7932921,92.7291754 99.0943899,94.2576658 98.5433377,95.5850018 C97.9922855,96.9123378 96.6971764,97.7781526 95.26,97.78 L86.66,97.78 C83.2295987,97.8347681 79.9837088,99.3432164 77.73,101.93 C76.0435722,103.811675 73.6368031,104.887813 71.11,104.89 Z M55.57,94.22 C60.0089732,94.2807189 64.2138752,96.2214429 67.14,99.56 C68.1527178,100.685755 69.5957605,101.328628 71.11,101.328628 C72.6242395,101.328628 74.0672822,100.685755 75.08,99.56 C78.0084456,96.2188723 82.2175259,94.2778974 86.66,94.22 L95.28,94.22 L79.05,78 C77.3749071,76.3360226 76.4350849,74.0710872 76.44,71.71 L76.44,62.47 C76.4528549,58.2263156 74.7676794,54.1538081 71.76,51.16 L71.11,50.52 L70.46,51.16 C67.4523206,54.1538081 65.7671451,58.2263156 65.78,62.47 L65.78,71.72 C65.7822449,74.0776222 64.8426278,76.3384634 63.17,78 L47,94.22 L55.57,94.22 Z" id="Shape" fill="#FFFFFF"></path>
            <path d="M64,87.11 L64,62.47 C64.000152,57.7547108 65.8743846,53.2328099 69.21,49.9 L69.85,49.26 C70.1826,48.9228786 70.6364246,48.733101 71.11,48.733101 C71.5835754,48.733101 72.0374,48.9228786 72.37,49.26 L73.02,49.9 C76.3482295,53.2369291 78.2181149,57.7570176 78.22,62.47 L78.22,87.11" id="Shape"></path>
            <path d="M78.22,88.89 C77.2369331,88.89 76.44,88.0930669 76.44,87.11 L76.44,62.47 C76.4528549,58.2263156 74.7676794,54.1538081 71.76,51.16 L71.11,50.51 L70.46,51.16 C67.4523206,54.1538081 65.7671451,58.2263156 65.78,62.47 L65.78,87.11 C65.78,88.0930669 64.9830669,88.89 64,88.89 C63.0169331,88.89 62.22,88.0930669 62.22,87.11 L62.22,62.47 C62.2220309,57.2759472 64.3035886,52.2989356 68,48.65 L68.6,48 C69.9884152,46.6380125 72.2115848,46.6380125 73.6,48 L74.25,48.66 C77.9376571,52.3082782 80.0088084,57.2826431 80,62.47 L80,87.11 C80,88.0930669 79.2030669,88.89 78.22,88.89 Z" id="Shape" fill="#FFFFFF"></path>
            <path d="M68.81,60.44 C69.3924442,59.1470078 70.1679606,57.950015 71.11,56.89 C72.0520394,57.950015 72.8275558,59.1470078 73.41,60.44" id="Shape" fill="#FFFFFF"></path>
        </g>
    </g>
</svg>