<svg id="Layer_1" data-name="Layer 1" xmlns="http://www.w3.org/2000/svg" viewBox="0 0 144 144"><defs><style>.cls-1{fill:#fff;}.cls-2{opacity:0.5;}.cls-3{fill:#7233ad;}.cls-4{fill:#f2f1dc;}.cls-5{fill:#262425;}.cls-6{fill:#ee3e23;}</style></defs><title>badge 1 hw</title><g id="Hello_World_Badge" data-name="Hello World Badge"><circle class="cls-1" cx="71.12" cy="71.11" r="67.56"/><g class="cls-2"><circle class="cls-3" cx="71.11" cy="71.11" r="71.11"/></g><path class="cls-4" d="M124.27,112.8A67.36,67.36,0,0,1,77.8,138.34q-3.3.33-6.69.33A67.39,67.39,0,0,1,19.74,115,16,16,0,0,1,43,109.59a8.88,8.88,0,0,1,15.38-3.28L60.44,96H81.78l2.27,11.34a17.81,17.81,0,0,1,13.21,1.42,10.66,10.66,0,0,1,19.48,1.5A15.94,15.94,0,0,1,124.27,112.8Z"/><path class="cls-5" d="M71.11,140.44a69.25,69.25,0,0,1-52.72-24.3,1.79,1.79,0,0,1-.21-2,17.79,17.79,0,0,1,24-7.15,10.66,10.66,0,0,1,15.09-4l1.46-7.32a1.79,1.79,0,0,1,1.74-1.43H81.78a1.78,1.78,0,0,1,1.74,1.43l1.91,9.55a19.74,19.74,0,0,1,11.16,1.27,12.45,12.45,0,0,1,21.4,2.14,17.88,17.88,0,0,1,7.25,2.7,1.76,1.76,0,0,1,.78,1.2,1.74,1.74,0,0,1-.35,1.39A69.15,69.15,0,0,1,78,140.11C75.72,140.33,73.41,140.44,71.11,140.44ZM21.93,114.79a65.74,65.74,0,0,0,49.18,22.1c2.18,0,4.37-.11,6.52-.32a66.05,66.05,0,0,0,11.67-2.23,65.35,65.35,0,0,0,32.26-21,14.21,14.21,0,0,0-5-1.28,1.77,1.77,0,0,1-1.55-1.19,8.89,8.89,0,0,0-16.24-1.25,1.78,1.78,0,0,1-2.4.73,15.92,15.92,0,0,0-11.89-1.28,1.79,1.79,0,0,1-2.23-1.37l-2-9.9H61.9l-1.77,8.88a1.78,1.78,0,0,1-3.11.79,7.11,7.11,0,0,0-12.31,2.62A1.77,1.77,0,0,1,42,111a14.23,14.23,0,0,0-20,3.75Z"/><path class="cls-5" d="M71.11,5.69a65.42,65.42,0,0,1,46.26,111.68A65.42,65.42,0,0,1,24.85,24.85,65,65,0,0,1,71.11,5.69m0-5.69a71.11,71.11,0,1,0,71.11,71.11A71.11,71.11,0,0,0,71.11,0Z"/><path class="cls-4" d="M64,137.41a14.23,14.23,0,0,1-22.1-.95A16,16,0,1,1,43,109.59a8.89,8.89,0,1,1,16.8,5.74"/><path class="cls-5" d="M53.33,144a16.05,16.05,0,0,1-11.88-5.29,17.78,17.78,0,1,1,.7-31.73,10.67,10.67,0,0,1,19.3,9,1.78,1.78,0,0,1-3.3-1.34,7.11,7.11,0,1,0-13.44-4.59,1.74,1.74,0,0,1-1.11,1.19A1.76,1.76,0,0,1,42,111a14.23,14.23,0,1,0-1,23.88,1.79,1.79,0,0,1,2.34.48,12.45,12.45,0,0,0,19.34.83,1.77,1.77,0,1,1,2.66,2.35A16,16,0,0,1,53.33,144Z"/><path class="cls-5" d="M86,119.11a1.77,1.77,0,0,1-1.74-1.43L80,96.35a1.78,1.78,0,0,1,3.49-.7L87.79,117a1.79,1.79,0,0,1-1.4,2.1A2,2,0,0,1,86,119.11Z"/><path class="cls-4" d="M90.67,128a8.9,8.9,0,0,0-12.45-12.45"/><path class="cls-5" d="M90.67,129.78a1.78,1.78,0,0,1-1.42-2.85,7,7,0,0,0,1.42-4.26,7.12,7.12,0,0,0-7.11-7.11A7,7,0,0,0,79.29,117a1.78,1.78,0,0,1-2.14-2.85,10.67,10.67,0,0,1,14.94,14.94A1.79,1.79,0,0,1,90.67,129.78Z"/><rect class="cls-5" x="43.71" y="34.82" width="5.03" height="5.03" rx="1.78" ry="1.78" transform="translate(-12.86 43.62) rotate(-45)"/><rect class="cls-5" x="33.04" y="77.49" width="5.03" height="5.03" rx="1.78" ry="1.78" transform="translate(-46.15 48.57) rotate(-45)"/><rect class="cls-5" x="19.34" y="56.67" width="7.54" height="7.54" rx="1.78" ry="1.78" transform="translate(-35.97 34.05) rotate(-45)"/><rect class="cls-5" x="104.15" y="47.26" width="5.03" height="5.03" rx="1.78" ry="1.78" transform="translate(-3.96 90) rotate(-45)"/><rect class="cls-5" x="115.34" y="69.12" width="7.54" height="7.54" rx="1.78" ry="1.78" transform="translate(-16.65 105.57) rotate(-45)"/><path class="cls-4" d="M49.78,77.61V96h7.11V65.35a5.34,5.34,0,0,1-1.56,3.77l-3.47,3.46A7.15,7.15,0,0,0,49.78,77.61Z"/><path class="cls-5" d="M56.89,97.78H49.78A1.78,1.78,0,0,1,48,96V77.61a8.82,8.82,0,0,1,2.6-6.28l3.47-3.47a3.52,3.52,0,0,0,1-2.51,1.78,1.78,0,0,1,3.56,0V96A1.78,1.78,0,0,1,56.89,97.78Zm-5.33-3.56h3.55V71.85l-2,2a5.29,5.29,0,0,0-1.56,3.77Z"/><path class="cls-4" d="M92.44,77.61V96H85.33V65.35a5.38,5.38,0,0,0,1.56,3.77l3.47,3.46A7.11,7.11,0,0,1,92.44,77.61Z"/><path class="cls-5" d="M92.44,97.78H85.33A1.78,1.78,0,0,1,83.56,96V65.35a1.78,1.78,0,1,1,3.55,0,3.52,3.52,0,0,0,1,2.51l3.47,3.47a8.82,8.82,0,0,1,2.6,6.28V96A1.78,1.78,0,0,1,92.44,97.78Zm-5.33-3.56h3.56V77.61a5.3,5.3,0,0,0-1.57-3.77l-2-2Z"/><path class="cls-6" d="M72.37,29.7l2.55,2.55A35.54,35.54,0,0,1,85.33,57.39V96H56.89V57.39A35.54,35.54,0,0,1,67.3,32.25l2.55-2.55A1.79,1.79,0,0,1,72.37,29.7Z"/><path class="cls-5" d="M85.33,97.78H56.89A1.78,1.78,0,0,1,55.11,96V57.39A37,37,0,0,1,66.05,31l2.55-2.56a3.52,3.52,0,0,1,2.51-1,3.57,3.57,0,0,1,2.52,1h0L76.18,31A37.07,37.07,0,0,1,87.11,57.39V96A1.78,1.78,0,0,1,85.33,97.78ZM58.67,94.22H83.56V57.39a33.56,33.56,0,0,0-9.9-23.88L71.11,31l-2.55,2.55a33.55,33.55,0,0,0-9.89,23.88Z"/><path class="cls-4" d="M95.26,96h-8.6a13.81,13.81,0,0,0-10.25,4.75,7.13,7.13,0,0,1-10.6,0A13.8,13.8,0,0,0,55.57,96H47a1.77,1.77,0,0,1-1.26-3L61.92,76.75a7.11,7.11,0,0,0,2.08-5V62.47a17.73,17.73,0,0,1,5.21-12.56l.64-.65a1.77,1.77,0,0,1,2.52,0l.65.65a17.76,17.76,0,0,1,5.2,12.56v9.25a7.08,7.08,0,0,0,2.09,5L96.52,93A1.77,1.77,0,0,1,95.26,96Z"/><path class="cls-5" d="M71.11,104.89a8.9,8.9,0,0,1-6.62-3,12.1,12.1,0,0,0-8.92-4.15H47a3.56,3.56,0,0,1-2.52-6.07L60.66,75.49a5.26,5.26,0,0,0,1.56-3.77V62.47A19.43,19.43,0,0,1,68,48.65L68.6,48a3.55,3.55,0,0,1,5,0l.64.65A19.38,19.38,0,0,1,80,62.47v9.25a5.26,5.26,0,0,0,1.56,3.77L97.78,91.71a3.56,3.56,0,0,1-2.52,6.07h-8.6a12.1,12.1,0,0,0-8.93,4.15A8.9,8.9,0,0,1,71.11,104.89ZM55.57,94.22a15.67,15.67,0,0,1,11.57,5.34,5.34,5.34,0,0,0,7.94,0,15.67,15.67,0,0,1,11.58-5.34h8.62L79.05,78a8.84,8.84,0,0,1-2.61-6.29V62.47a15.89,15.89,0,0,0-4.68-11.31l-.65-.64-.65.64a15.89,15.89,0,0,0-4.68,11.31v9.25A8.84,8.84,0,0,1,63.17,78L47,94.22Z"/><path class="cls-4" d="M64,87.11V62.47A17.77,17.77,0,0,1,69.21,49.9l.64-.64a1.77,1.77,0,0,1,2.52,0l.65.64a17.81,17.81,0,0,1,5.2,12.57V87.11"/><path class="cls-5" d="M78.22,88.89a1.78,1.78,0,0,1-1.78-1.78V62.47a15.89,15.89,0,0,0-4.68-11.31l-.65-.65-.65.65a15.89,15.89,0,0,0-4.68,11.31V87.11a1.78,1.78,0,1,1-3.56,0V62.47A19.43,19.43,0,0,1,68,48.65L68.6,48a3.57,3.57,0,0,1,5,0l.65.66A19.38,19.38,0,0,1,80,62.47V87.11A1.78,1.78,0,0,1,78.22,88.89Z"/><path class="cls-4" d="M68.81,60.44a14,14,0,0,1,2.3-3.55,14,14,0,0,1,2.3,3.55"/><path class="cls-5" d="M68.81,61.33a.92.92,0,0,1-.36-.07A.89.89,0,0,1,68,60.08a14.84,14.84,0,0,1,2.45-3.78.87.87,0,0,1,.66-.3h0a.89.89,0,0,1,.67.3,14.81,14.81,0,0,1,2.44,3.78.89.89,0,1,1-1.62.73,12.37,12.37,0,0,0-1.49-2.52,13.36,13.36,0,0,0-1.49,2.52A.88.88,0,0,1,68.81,61.33Z"/></g></svg>