<?xml version="1.0" standalone="no"?>
<!DOCTYPE svg PUBLIC "-//W3C//DTD SVG 20010904//EN"
 "http://www.w3.org/TR/2001/REC-SVG-20010904/DTD/svg10.dtd">
<svg version="1.0" xmlns="http://www.w3.org/2000/svg"
 width="700.000000pt" height="700.000000pt" viewBox="0 0 700.000000 700.000000"
 preserveAspectRatio="xMidYMid meet">
<metadata>
Created by potrace 1.11, written by Peter Selinger 2001-2013
</metadata>
<g transform="translate(0.000000,700.000000) scale(0.100000,-0.100000)"
fill="#000000" stroke="none">
<path d="M3248 6995 c-2 -1 -41 -5 -88 -9 -47 -4 -96 -8 -110 -10 -14 -3 -47
-7 -75 -11 -72 -9 -316 -55 -326 -61 -9 -5 -24 -9 -79 -20 -76 -16 -323 -101
-465 -161 -256 -108 -535 -270 -750 -435 -26 -21 -106 -85 -155 -127 -71 -60
-290 -279 -358 -358 -258 -300 -480 -671 -612 -1023 -17 -47 -38 -102 -46
-123 -54 -145 -124 -442 -154 -662 -31 -229 -34 -692 -5 -865 2 -14 7 -45 10
-70 5 -47 10 -73 25 -155 55 -295 165 -624 296 -886 74 -149 219 -397 244
-419 3 -3 23 -32 45 -65 21 -33 41 -62 45 -65 3 -3 40 -48 82 -100 112 -141
203 -238 352 -375 84 -77 108 -97 205 -173 19 -15 39 -32 45 -38 20 -19 230
-160 296 -199 114 -67 133 -77 240 -130 130 -65 169 -83 295 -133 100 -40 325
-112 392 -127 10 -2 68 -15 128 -29 61 -13 132 -27 158 -31 26 -3 70 -10 98
-15 170 -32 753 -35 912 -4 11 2 41 6 66 9 61 7 156 24 221 40 3 1 25 5 49 9
79 15 303 83 441 134 312 116 598 274 880 487 58 43 107 81 110 84 3 3 43 40
90 81 504 444 877 1049 1045 1695 40 152 81 363 90 455 3 36 8 76 10 90 22
121 21 565 -1 702 -2 15 -6 48 -9 73 -2 24 -11 86 -20 137 -9 51 -18 102 -19
113 -2 11 -9 40 -16 65 -7 25 -14 56 -16 70 -7 41 -53 198 -86 295 -124 361
-323 729 -551 1020 -142 180 -327 372 -477 496 -36 30 -67 56 -70 60 -28 32
-294 215 -431 296 -86 51 -369 193 -384 193 -4 0 -31 11 -59 24 -92 43 -423
148 -536 170 -14 3 -70 14 -125 25 -55 10 -122 22 -150 25 -102 13 -141 18
-165 23 -27 5 -526 13 -532 8z"/>
</g>
</svg>
