<?xml version="1.0" encoding="utf-8"?>
<!-- Generator: Adobe Illustrator 21.1.0, SVG Export Plug-In . SVG Version: 6.00 Build 0)  -->
<svg version="1.1" id="Layer_1" xmlns="http://www.w3.org/2000/svg" xmlns:xlink="http://www.w3.org/1999/xlink" x="0px" y="0px"
	 viewBox="0 0 1681.9 725.6" style="enable-background:new 0 0 1681.9 725.6;" xml:space="preserve">
<style type="text/css">
	.st0{fill:#A29B70;}
	.st1{opacity:0.109;fill:#A29B70;enable-background:new    ;}
	.st2{fill:#A9A29A;}
</style>
<g id="Group_5" transform="translate(104.518 296.643)">
	<g id="Group_4">
		<path id="Path_1731" class="st0" d="M-93-22.8c0.3-6.6-0.4-13.2-2.2-19.5c-0.6,0.3-1.3,0.5-1.9,0.8c2.9,6.5,8.2,11.6,14.8,14.2
			c0.2-0.7,0.4-1.4,0.6-2c-7.3-1.8-14.5-3.3-22-1.9c0.3,0.6,0.5,1.3,0.8,1.9c6.8-4.3,13.4-9.1,19.6-14.2c-0.6-0.3-1.2-0.7-1.8-1
			c-2.5,6.3-6.1,12.1-10.8,17c-0.9,1,0.6,2.5,1.5,1.5c5-5.1,8.8-11.2,11.4-17.9c0.4-1.1-1-1.6-1.8-1c-6.1,5-12.5,9.7-19.2,13.9
			c-0.5,0.3-0.6,1-0.3,1.5c0.2,0.4,0.7,0.5,1.1,0.4c7.1-1.3,14,0.2,20.9,1.9c0.6,0.1,1.1-0.2,1.3-0.8c0.1-0.5-0.2-1-0.7-1.2
			c-6.1-2.4-10.9-7.2-13.5-13.2c-0.5-1.1-2.2-0.3-1.9,0.8c1.7,6.2,2.4,12.6,2.1,19C-95.1-21.4-93-21.5-93-22.8L-93-22.8z"/>
	</g>
</g>
<g id="Group_7" transform="translate(116.948 108.6)">
	<g id="Group_6">
		<path id="Path_1732" class="st0" d="M-95.5-23.8c0.2-5.4,0-10.8-0.6-16.2c-0.6,0.2-1.2,0.5-1.8,0.7c2.9,2.9,5.5,6.1,7.9,9.4
			l0.6-1.5c-4.6,0.8-9.3,0.8-14,0.2c0.1,0.6,0.2,1.3,0.3,1.9c6.3-4.7,12.6-9.3,18.8-14l-1.4-1.4c-3.6,5.8-7.2,11.6-10.8,17.3
			c-0.3,0.5-0.1,1.2,0.4,1.4c0.5,0.3,1.1,0.1,1.4-0.3c3.6-5.8,7.2-11.6,10.8-17.3c0.5-0.8-0.6-2.1-1.4-1.4
			c-6.3,4.7-12.6,9.3-18.8,14c-0.6,0.5-0.7,1.8,0.3,1.9c5,0.7,10.1,0.7,15.1-0.2c0.5-0.1,0.9-0.7,0.7-1.2c0-0.1-0.1-0.2-0.1-0.3
			c-2.5-3.5-5.3-6.8-8.3-9.8c-0.6-0.6-1.9-0.2-1.8,0.7c0.7,5.4,0.9,10.8,0.6,16.2C-97.6-22.5-95.5-22.5-95.5-23.8L-95.5-23.8z"/>
	</g>
</g>
<g id="Group_9" transform="translate(237.381 232.29)">
	<g id="Group_8">
		<path id="Path_1733" class="st0" d="M772.6,61.7c1-6.1,0.5-12.3-1.4-18.1c-0.6,0.3-1.2,0.7-1.8,1c3.6,4.4,7.2,8.9,10.8,13.3
			c0.2-0.6,0.5-1.2,0.7-1.8c-7.2-0.8-14.4-1.7-21.7-2.5c0.2,0.7,0.4,1.3,0.5,2c6.4-3.6,13.4-6,20.7-7.2c-0.3-0.6-0.7-1.2-1-1.8
			c-3.5,3.8-6.6,8-9.2,12.5c-0.3,0.5-0.1,1.2,0.4,1.4c0.5,0.3,1.1,0.1,1.4-0.3c2.6-4.3,5.6-8.4,8.9-12.1c0.4-0.5,0.3-1.2-0.1-1.6
			c-0.2-0.2-0.6-0.3-0.9-0.2c-7.4,1.3-14.6,3.8-21.2,7.4c-1,0.6-0.4,1.8,0.5,2c7.2,0.8,14.4,1.7,21.7,2.5c1,0.1,1.2-1.2,0.7-1.8
			c-3.6-4.4-7.2-8.9-10.8-13.3c-0.4-0.4-1.1-0.4-1.5,0.1c-0.2,0.3-0.3,0.6-0.3,0.9c1.8,5.4,2.3,11.2,1.4,16.9
			C770.3,62.5,772.4,63.1,772.6,61.7L772.6,61.7z"/>
	</g>
</g>
<g id="Group_9_1_" transform="translate(237.381 232.29)">
	<g id="Group_8_1_">
		<path id="Path_1733_1_" class="st0" d="M574.3-14.8c1-6.1,0.5-12.3-1.4-18.1c-0.6,0.3-1.2,0.7-1.8,1c3.6,4.4,7.2,8.9,10.8,13.3
			c0.2-0.6,0.5-1.2,0.7-1.8c-7.2-0.8-14.4-1.7-21.7-2.5c0.2,0.7,0.4,1.3,0.5,2c6.4-3.6,13.4-6,20.7-7.2c-0.3-0.6-0.7-1.2-1-1.8
			c-3.5,3.8-6.6,8-9.2,12.5c-0.3,0.5-0.1,1.2,0.4,1.4c0.5,0.3,1.1,0.1,1.4-0.3c2.6-4.3,5.6-8.4,8.9-12.1c0.4-0.5,0.3-1.2-0.1-1.6
			c-0.2-0.2-0.6-0.3-0.9-0.2c-7.4,1.3-14.6,3.8-21.2,7.4c-1,0.6-0.4,1.8,0.5,2c7.2,0.8,14.4,1.7,21.7,2.5c1,0.1,1.2-1.2,0.7-1.8
			c-3.6-4.4-7.2-8.9-10.8-13.3c-0.4-0.4-1.1-0.4-1.5,0.1c-0.2,0.3-0.3,0.6-0.3,0.9c1.8,5.4,2.3,11.2,1.4,16.9
			C572-14,574.1-13.4,574.3-14.8L574.3-14.8z"/>
	</g>
</g>
<g id="Group_11" transform="translate(305.477 353.937)">
	<g id="Group_10">
		<path id="Path_1734" class="st0" d="M-92-44.2c0,4.1-0.1,8.3-0.1,12.4c0,0.6,0.5,1.1,1.1,1.1c0.5,0,0.9-0.3,1-0.8
			c1-4.3,3.8-7.1,7.4-9.4c0.8-0.5,0.6-2.1-0.5-2c-6.8,0.9-13.6,1-20.4,0.5c-1.2-0.1-1.4,1.8-0.3,2.1c8,2.1,15.9,4.7,23.5,7.9
			c0.5,0.3,1.1,0.1,1.4-0.4c0.2-0.4,0.2-0.9-0.1-1.2c-4.2-4.9-9.6-8.1-15.6-10.5c-1.3-0.5-1.8,1.5-0.6,2c5.6,2.1,10.7,5.5,14.7,9.9
			c0.4-0.6,0.8-1.1,1.3-1.6c-7.8-3.3-15.8-6-24-8.1l-0.3,2.1c6.8,0.5,13.6,0.3,20.4-0.5c-0.2-0.7-0.4-1.3-0.5-2
			c-4,2.6-7.3,5.9-8.4,10.7l2.1,0.3c0-4.1,0.1-8.3,0.1-12.4C-89.9-45.5-92-45.5-92-44.2z"/>
	</g>
</g>
<g id="Group_13" transform="translate(297.299 132.533)">
	<g id="Group_12">
		<path id="Path_1735" class="st0" d="M-92.8-25.7c0-5.6-0.1-11.1-0.1-16.7c-0.7,0.2-1.3,0.4-2,0.5l6,9.9c0.3-0.5,0.6-1.1,0.9-1.6
			c-5.2-0.1-10.3-0.2-15.5-0.4c0.2,0.7,0.4,1.3,0.5,2c6.6-4.3,13.6-8,20.9-11c-0.3-0.6-0.7-1.2-1-1.8c-4.4,4.6-7.8,10.1-9.8,16.1
			c-0.4,1.3,1.6,1.8,2,0.6c1.9-5.7,5.1-10.9,9.3-15.2c0.7-0.7,0-2.2-1-1.8c-7.5,3.1-14.6,6.8-21.4,11.2c-0.5,0.3-0.7,1-0.3,1.5
			c0.2,0.3,0.5,0.5,0.8,0.5c5.2,0.1,10.3,0.2,15.5,0.4c0.6,0,1.1-0.5,1-1.1c0-0.2-0.1-0.4-0.1-0.5l-6-9.9c-0.3-0.5-1-0.7-1.5-0.3
			c-0.3,0.2-0.5,0.5-0.5,0.8c0,5.6,0.1,11.1,0.1,16.7C-94.8-24.3-92.7-24.3-92.8-25.7z"/>
	</g>
</g>
<g id="Group_15" transform="translate(480.508 72.529)">
	<g id="Group_14">
		<path id="Path_1736" class="st0" d="M-73.3,10.3c0.9-4.8,1.9-9.6,2.8-14.4c-0.6,0.1-1.3,0.2-1.9,0.3c2.8,3.7,5.5,7.4,8.3,11
			l1.2-1.5C-68,5-73.2,4.2-78.3,3.5c0.1,0.6,0.2,1.3,0.3,1.9c5-2.9,9.9-5.8,14.9-8.8l-1.4-1.4c-2.6,4.7-5.6,9.1-9.1,13.2
			c-0.9,1,0.6,2.5,1.5,1.5c3.6-4.2,6.7-8.8,9.4-13.7c0.5-0.9-0.5-2-1.4-1.4c-5,2.9-9.9,5.8-14.9,8.8c-0.7,0.4-0.7,1.8,0.3,1.9
			c5.1,0.7,10.3,1.5,15.4,2.2c0.8,0.1,1.8-0.7,1.2-1.5c-2.8-3.7-5.5-7.4-8.3-11c-0.5-0.6-1.7-0.7-1.9,0.3c-0.9,4.8-1.9,9.6-2.8,14.4
			C-75.6,11.1-73.6,11.6-73.3,10.3z"/>
	</g>
</g>
<g id="Group_3526" transform="translate(181.177 426.655)">
	<g id="Group_3525">
		<path id="Path_3492" class="st0" d="M-89.8-14.8c0.2-9.9,0.4-19.7,0.6-29.6c-0.7,0.2-1.3,0.4-2,0.5c3.2,6.6,6.4,13.1,9.6,19.7
			l1.2-1.5c-7.3-3.1-15.2-4.6-23.1-4.4l0.3,2.1c7.4-2.4,14.8-4.8,22.3-7.2l-1.2-1.5c-2.5,5.2-5,10.3-7.5,15.5
			c-0.6,1.2,1.2,2.3,1.8,1.1c2.5-5.2,5-10.3,7.5-15.5c0.3-0.5,0.1-1.1-0.4-1.4c-0.3-0.2-0.6-0.2-0.8-0.1c-7.4,2.4-14.8,4.8-22.3,7.2
			c-0.6,0.2-0.9,0.8-0.7,1.4c0.1,0.4,0.5,0.7,1,0.7c7.8-0.1,15.5,1.4,22.6,4.4c0.9,0.4,1.5-0.8,1.2-1.5c-3.2-6.6-6.4-13.1-9.6-19.7
			c-0.3-0.5-1-0.7-1.5-0.4c-0.3,0.2-0.5,0.5-0.5,0.9c-0.2,9.9-0.4,19.7-0.6,29.6C-91.9-13.5-89.8-13.5-89.8-14.8L-89.8-14.8z"/>
	</g>
</g>
<g id="Group_3528" transform="translate(284.683 543.43)">
	<g id="Group_3527">
		<path id="Path_3493" class="st0" d="M-91.3-17.6c0.6-8.9,0.2-17.9-1-26.7c-0.6,0.3-1.3,0.5-1.9,0.8c3.5,7.5,7,15.1,10.6,22.6
			l1.2-1.5c-7-2.9-13.9-5.8-20.9-8.7v2c7.4-1.4,14.8-2,22.3-1.9c-0.2-0.6-0.5-1.2-0.7-1.8c-3.7,3.5-7.5,7-11.2,10.5
			c-1,0.9,0.5,2.4,1.5,1.5c3.7-3.5,7.5-7,11.2-10.5c0.4-0.4,0.4-1.1-0.1-1.5c-0.2-0.2-0.4-0.3-0.6-0.3c-7.7-0.2-15.4,0.5-22.9,1.9
			c-1.1,0.2-0.8,1.7,0,2c7,2.9,13.9,5.8,20.9,8.7c0.9,0.4,1.5-0.8,1.2-1.5c-3.5-7.5-7-15.1-10.6-22.6c-0.5-1.2-2.1-0.3-1.9,0.8
			c1.2,8.7,1.5,17.5,1,26.2C-93.4-16.3-91.3-16.3-91.3-17.6z"/>
	</g>
</g>
<g id="Group_3530" transform="translate(122.799 574.747)">
	<g id="Group_3529">
		<path id="Path_3494" class="st0" d="M-91.3-18.9c0.7-7.7,0.1-15.6-1.8-23.1l-1.3,1.3c5.8,2.4,10.3,7.3,12.2,13.3l1.3-1.3
			c-7.4-1.6-14.9-3.2-22.3-4.8c0.1,0.6,0.2,1.3,0.3,1.9l25.5-11.7c-0.4-0.6-0.8-1.1-1.3-1.6c-5.4,6.4-10.8,12.9-16.2,19.3
			c-0.9,1,0.6,2.5,1.5,1.5C-88-30.5-82.6-37-77.2-43.4c0.4-0.4,0.4-1.1,0-1.5c-0.3-0.3-0.9-0.4-1.3-0.1L-104-33.3
			c-0.5,0.3-0.6,0.9-0.3,1.4c0.1,0.2,0.4,0.4,0.6,0.5c7.4,1.6,14.9,3.2,22.3,4.8c0.6,0.1,1.2-0.2,1.3-0.8c0-0.2,0-0.3,0-0.5
			c-2.1-6.7-7.1-12.2-13.6-14.8c-0.8-0.3-1.5,0.6-1.3,1.3c1.8,7.4,2.4,15,1.7,22.6C-93.5-17.6-91.4-17.6-91.3-18.9L-91.3-18.9z"/>
	</g>
</g>
<g id="Group_3530_1_" transform="translate(122.799 574.747)">
	<g id="Group_3529_1_">
		<path id="Path_3494_1_" class="st0" d="M1330.3-512.3c0.7-7.7,0.1-15.6-1.8-23.1l-1.3,1.3c5.8,2.4,10.3,7.3,12.2,13.3l1.3-1.3
			c-7.4-1.6-14.9-3.2-22.3-4.8c0.1,0.6,0.2,1.3,0.3,1.9l25.5-11.7c-0.4-0.6-0.8-1.1-1.3-1.6c-5.4,6.4-10.8,12.9-16.2,19.3
			c-0.9,1,0.6,2.5,1.5,1.5c5.4-6.4,10.8-12.9,16.2-19.3c0.4-0.4,0.4-1.1,0-1.5c-0.3-0.3-0.9-0.4-1.3-0.1l-25.5,11.7
			c-0.5,0.3-0.6,0.9-0.3,1.4c0.1,0.2,0.4,0.4,0.6,0.5c7.4,1.6,14.9,3.2,22.3,4.8c0.6,0.1,1.2-0.2,1.3-0.8c0-0.2,0-0.3,0-0.5
			c-2.1-6.7-7.1-12.2-13.6-14.8c-0.8-0.3-1.5,0.6-1.3,1.3c1.8,7.4,2.4,15,1.7,22.6C1328.1-511,1330.2-511,1330.3-512.3L1330.3-512.3
			z"/>
	</g>
</g>
<g id="Group_3532" transform="translate(455.213 434.989)">
	<g id="Group_3531">
		<path id="Path_3495" class="st0" d="M-54.8-93.7c-2.1-9.7-4.1-19.3-6.2-29c-0.7,0.2-1.3,0.4-2,0.6c3.1,7.7,8.1,14.5,14.6,19.7
			c0.4-0.6,0.8-1.1,1.3-1.6c-5.7-3-12-4.4-18.4-4.3c0.2,0.7,0.4,1.3,0.5,2c5.1-3.8,10.1-7.6,15.2-11.5l-1.5-0.6
			c0.8,5.4-1.4,10.9-5.9,14.1c-1.1,0.8,0,2.6,1.1,1.8c5.2-3.8,7.9-10.1,6.9-16.5c-0.1-0.5-0.7-0.9-1.2-0.7c-0.1,0-0.2,0.1-0.3,0.1
			c-5.1,3.8-10.1,7.6-15.2,11.5c-0.5,0.3-0.7,1-0.3,1.5c0.2,0.3,0.5,0.5,0.8,0.5c6-0.1,12,1.2,17.4,4c1,0.5,2.3-0.9,1.3-1.6
			c-6.2-4.9-11.1-11.4-14.1-18.8c-0.2-0.6-0.7-0.9-1.3-0.7c-0.6,0.2-0.9,0.7-0.7,1.3c2.1,9.7,4.1,19.3,6.2,29
			C-56.5-91.8-54.5-92.3-54.8-93.7L-54.8-93.7z"/>
	</g>
</g>
<g id="Group_3538" transform="translate(1355.6 371.7)">
	<g id="Group_3537">
		<g id="Group_3536">
			<g id="Group_3535">
				<path id="Path_3496" class="st1" d="M-96.1-37.3c0.6,0-0.5-1-0.5-1c-0.4-0.4-1.6-1.9-2.2-1.9s0.5,1,0.5,1
					C-98-38.7-96.8-37.3-96.1-37.3z"/>
				<path id="Path_3497" class="st1" d="M-95.8-34.4c0.5,0-0.8-2-1.3-2C-97.6-36.5-96.2-34.4-95.8-34.4z"/>
				<path id="Path_3498" class="st1" d="M-97.6-39c-0.1-0.3-0.3-0.6-0.6-0.8c-0.9-0.8-1.8-1.7-2.7-2.5c-0.6-0.5-2.6-2.9-3.6-2.9
					c0.1,0.3,0.3,0.6,0.6,0.8c0.9,0.8,1.8,1.7,2.7,2.5C-100.7-41.4-98.7-39-97.6-39z"/>
				<path id="Path_3499" class="st1" d="M-97.5-37.6c0-0.3-0.1-0.6-0.4-0.7c-0.6-0.8-1.3-1.5-1.9-2.2c-0.4-0.4-1.9-2.6-2.7-2.6
					c0,0.3,0.1,0.6,0.4,0.7c0.6,0.8,1.3,1.5,1.9,2.2C-99.8-39.8-98.3-37.6-97.5-37.6z"/>
				<path id="Path_3500" class="st1" d="M-95.7-37.6c0.5,0-0.3-0.7-0.3-0.7c-0.3-0.3-1.1-1.1-1.5-1.1c-0.5,0,0.3,0.7,0.3,0.7
					C-96.9-38.4-96.2-37.6-95.7-37.6z"/>
				<path id="Path_3501" class="st1" d="M-97.7-39.5c0-0.3-0.2-0.5-0.4-0.6c-0.7-0.6-1.4-1.3-2.1-1.9c-0.6-0.5-2-2.1-2.9-2.1
					c0,0.3,0.2,0.5,0.4,0.6c0.7,0.6,1.4,1.3,2.1,1.9C-100.1-41.1-98.6-39.5-97.7-39.5z"/>
				<path id="Path_3502" class="st1" d="M-97.1-36.5c0-0.3-0.2-0.6-0.4-0.8c-0.7-0.9-1.4-1.8-2.1-2.6c-0.3-0.4-2.1-3.1-2.9-3.1
					c0,0.3,0.2,0.6,0.4,0.8c0.7,0.9,1.4,1.8,2.1,2.6C-99.6-39.2-97.9-36.5-97.1-36.5z"/>
				<path id="Path_3503" class="st1" d="M-96.4-38.6c0.4,0-0.9-1.4-1.3-1.4C-98.2-39.9-96.9-38.6-96.4-38.6z"/>
				<path id="Path_3504" class="st1" d="M-97.3-37.9c-0.1-0.4-0.3-0.7-0.6-0.9c-0.9-1-1.8-2-2.8-2.9c-0.9-1-1.9-1.9-2.9-2.9
					c0.1-0.3,0-0.6-0.3-0.7c-0.3-0.1-0.6,0-0.7,0.3s0,0.6,0.3,0.7c0.1,0.1,0.3,0.1,0.4,0c0.9,1,1.8,2,2.8,2.9c0.9,1,1.9,1.9,2.9,2.9
					C-98-38.2-97.6-38-97.3-37.9z"/>
				<path id="Path_3505" class="st1" d="M-97.4-38.5c0.6,0-0.6-1-0.6-1c-0.4-0.4-1.8-2.1-2.5-2.1c-0.6,0,0.6,1,0.6,1
					C-99.5-40.2-98.1-38.5-97.4-38.5z"/>
				<path id="Path_3506" class="st1" d="M-95.8-38.6c0.4,0-0.8-1.2-1.2-1.2S-96.2-38.6-95.8-38.6z"/>
				<path id="Path_3507" class="st1" d="M-97.6-37.4c0-0.4-0.2-0.7-0.5-0.9c-0.7-0.9-1.5-1.9-2.3-2.8c-0.4-0.4-2.3-3.3-3.2-3.3
					c0,0.4,0.2,0.7,0.5,0.9c0.7,0.9,1.5,1.9,2.3,2.8C-100.4-40.2-98.5-37.4-97.6-37.4z"/>
			</g>
		</g>
	</g>
</g>
<g id="Group_3540" transform="translate(1381.214 303.989)">
	<g id="Group_3539">
		<path id="Path_3508" class="st0" d="M-92.9-15.7c-2.1-9.7-4.1-19.3-6.2-29c-0.7,0.2-1.4,0.4-2,0.6c3.1,7.7,8.1,14.5,14.6,19.7
			c0.4-0.6,0.8-1.1,1.3-1.6c-5.7-3-12-4.4-18.4-4.3c0.2,0.7,0.4,1.3,0.5,2c5.1-3.8,10.1-7.6,15.2-11.5l-1.5-0.6
			c0.8,5.4-1.4,10.9-5.9,14.1c-1.1,0.8,0,2.6,1.1,1.8c5.2-3.8,7.9-10.1,6.9-16.5c-0.1-0.5-0.7-0.9-1.2-0.7c-0.1,0-0.2,0.1-0.3,0.1
			c-5.1,3.8-10.1,7.6-15.2,11.5c-0.5,0.3-0.7,1-0.3,1.5c0.2,0.3,0.5,0.5,0.8,0.5c6-0.1,12,1.2,17.4,4c1,0.5,2.3-0.9,1.3-1.6
			c-6.2-4.9-11.1-11.4-14.1-18.8c-0.2-0.6-0.7-0.9-1.3-0.7c-0.6,0.2-0.9,0.7-0.7,1.3c2.1,9.7,4.1,19.3,6.2,29
			C-94.6-13.8-92.6-14.3-92.9-15.7L-92.9-15.7z"/>
	</g>
</g>
<g id="Group_3542" transform="translate(1462.55 572.444)">
	<g id="Group_3541">
		<path id="Path_3509" class="st0" d="M-82.5,20.7C-82.3,12.9-82.2,5-82-2.8l-2.1,0.3c2,5.6,3.2,11.4,3.4,17.3
			c0.4-0.3,0.9-0.7,1.3-1c-6.4-1.5-12.8-2.9-19.2-4.4v2c7.1-1.3,14.2-2.6,21.3-3.8c-0.4-0.3-0.9-0.7-1.3-1c0.1,2.1,0.2,4.1,0.3,6.2
			c0.1,1.3,2.2,1.4,2.1,0c-0.1-2.1-0.2-4.1-0.3-6.2c0-0.6-0.5-1-1.1-1c-0.1,0-0.2,0-0.2,0C-84.9,6.9-92,8.2-99.1,9.4
			c-0.6,0.2-0.9,0.7-0.7,1.3c0.1,0.3,0.4,0.6,0.7,0.7c6.4,1.5,12.8,2.9,19.2,4.4c0.6,0.1,1.4-0.3,1.3-1C-78.8,8.7-79.9,2.6-82-3.1
			c-0.2-0.6-0.8-0.9-1.3-0.7c-0.4,0.1-0.7,0.5-0.8,1c-0.2,7.8-0.3,15.7-0.5,23.5c0,0.6,0.5,1,1.1,1C-83,21.6-82.5,21.2-82.5,20.7
			L-82.5,20.7z"/>
	</g>
</g>
<g id="Group_3544" transform="translate(1598.18 285.441)">
	<g id="Group_3543">
		<path id="Path_3510" class="st0" d="M-93-19.8c-2-8.2-4-16.3-5.9-24.5l-1.3,1.3c3.7,1.5,10,6.1,9.7,10.8
			c-0.4,5.7-9.6,1.4-12.3-0.3c0.1,0.5,0.1,1.1,0.2,1.6c1.2-1.4,2.6-2.6,4.1-3.6c0.4-0.2,0.8-0.5,1.2-0.7c2.8-2.1,3.5-1.1,2.4,2.8
			c-0.3,0.5-0.1,1.2,0.4,1.4c0.5,0.3,1.1,0.1,1.4-0.3c1.4-2,1.4-4.7,0.2-6.8c-0.3-0.4-0.7-0.6-1.2-0.5c-3.9,1.1-7.4,3.3-10.1,6.3
			c-0.4,0.4-0.4,1-0.1,1.4c0.1,0.1,0.2,0.2,0.3,0.2c4.4,3,9.8,3.9,15,2.7c0.4-0.1,0.8-0.5,0.8-1c-0.3-7.2-4.9-13.6-11.7-16.1
			c-0.8-0.3-1.5,0.6-1.3,1.3c2,8.2,4,16.3,5.9,24.5C-94.7-17.9-92.7-18.5-93-19.8L-93-19.8z"/>
	</g>
</g>
<g id="Group_3546" transform="translate(1269.113 508.751)">
	<g id="Group_3545">
		<path id="Path_3511" class="st0" d="M-96.6-24c1.3-6.4,1.9-12.9,1.7-19.4H-97c0.2,5.3,1.6,10.5,4.2,15.2l1.2-1.5
			c-3.9-0.7-7.8-0.9-11.7-0.4c0.2,0.7,0.4,1.3,0.5,2c7.1-4.8,13.9-9.9,20.5-15.3l-1.5-1.5c-4.5,4.3-8.5,9.2-11.9,14.5
			c-0.7,1.1,1.1,2.2,1.8,1.1c3.2-5.2,7.1-9.9,11.5-14.1c1-1-0.5-2.3-1.5-1.5C-90.4-39.6-97.1-34.7-104-30c-0.8,0.5-0.6,2.1,0.5,2
			c3.7-0.5,7.4-0.4,11.1,0.3c0.6,0.2,1.1-0.2,1.3-0.7c0.1-0.3,0-0.6-0.1-0.8c-2.5-4.3-3.8-9.2-3.9-14.2c0-0.6-0.5-1-1.1-1
			c-0.5,0-1,0.5-1,1c0.2,6.3-0.3,12.6-1.6,18.8C-98.9-23.3-96.9-22.7-96.6-24L-96.6-24z"/>
	</g>
</g>
<g id="Group_3548" transform="translate(1688.355 533.468)">
	<g id="Group_3547">
		<path id="Path_3512" class="st0" d="M-96.6-20.2l3.9-23.7l-2.1-0.3c0.4,5.9,1.5,11.8,3.4,17.4l1.3-1.3c-4.4-1.8-8.6-3.7-12.9-5.8
			c-0.2,0.7-0.4,1.3-0.5,2c7.2-0.1,14-3.9,20.6-6.6c-0.3-0.6-0.7-1.2-1-1.8c-3.8,4.6-7.6,9.1-11.4,13.7c-0.9,1,0.6,2.5,1.5,1.5
			c3.8-4.6,7.6-9.1,11.4-13.7c0.6-0.7,0.1-2.2-1-1.8c-6.3,2.6-13.1,6.4-20.1,6.5c-0.6,0-1.1,0.5-1,1.1c0,0.4,0.2,0.7,0.5,0.9
			c4.4,2.2,8.8,4.2,13.4,6c0.7,0.3,1.5-0.6,1.3-1.3c-1.9-5.4-3-11.1-3.3-16.8c-0.1-1.1-1.9-1.5-2.1-0.3l-3.9,23.7
			C-98.9-19.4-96.9-18.8-96.6-20.2L-96.6-20.2z"/>
	</g>
</g>
<g id="Group_3550" transform="translate(1728.268 125.95)">
	<g id="Group_3549">
		<path id="Path_3513" class="st0" d="M-97.3-18.6c2-8.5,4.2-17,6.5-25.5h-2c1.6,6.3,3,12.6,2.2,19.2c0.7-0.2,1.3-0.4,2-0.5
			c-3.3-5.3-8.5-9.2-14.6-10.7l-0.3,2.1c6.1-0.7,12.1-2,18-3.8l-1.2-1.5C-90.9-33.6-95-27.9-98.9-22c-0.8,1.1,1.1,2.2,1.8,1.1
			c3.9-5.9,8-11.6,12.2-17.3c0.6-0.7-0.4-1.8-1.2-1.5c-5.7,1.8-11.5,3-17.4,3.7c-0.6,0-1.1,0.5-1,1.1c0,0.4,0.3,0.8,0.7,1
			c5.6,1.4,10.4,4.9,13.4,9.8c0.3,0.5,1,0.6,1.5,0.3c0.3-0.2,0.5-0.5,0.5-0.8c0.8-6.8-0.6-13.2-2.3-19.8c-0.2-0.6-0.7-0.9-1.3-0.7
			c-0.3,0.1-0.6,0.4-0.7,0.7c-2.4,8.4-4.5,16.9-6.5,25.5C-99.6-17.8-97.6-17.3-97.3-18.6L-97.3-18.6z"/>
	</g>
</g>
<g id="Group_3552" transform="translate(1242.599 155.874)">
	<g id="Group_3551">
		<path id="Path_3514" class="st0" d="M-96.2-22.1c-0.4-7.6-1.4-15.1-3.1-22.5c-0.6,0.3-1.3,0.5-1.9,0.8c2.4,4.8,4.8,9.7,7.2,14.5
			l1.2-1.5c-3.5-0.9-7-1.7-10.5-2.6c0.1,0.6,0.2,1.3,0.3,1.9c4.9-2.6,9.7-5.2,14.6-7.9l-1.4-1.4c-2.9,5.1-5.7,10.3-8.6,15.4
			c-0.7,1.2,1.2,2.2,1.8,1.1c2.9-5.1,5.7-10.3,8.6-15.4c0.3-0.5,0.1-1.1-0.4-1.4c-0.3-0.2-0.7-0.2-1,0c-4.9,2.6-9.7,5.2-14.6,7.9
			c-0.5,0.3-0.6,0.9-0.3,1.4c0.1,0.2,0.4,0.4,0.6,0.5c3.5,0.9,7,1.7,10.5,2.6c0.6,0.1,1.1-0.2,1.3-0.8c0.1-0.2,0-0.5-0.1-0.7
			c-2.4-4.8-4.8-9.7-7.2-14.5c-0.5-1.1-2.2-0.3-1.9,0.8c1.6,7.2,2.6,14.6,3,22C-98.3-20.8-96.2-20.8-96.2-22.1L-96.2-22.1z"/>
	</g>
</g>
<g id="Group_3554" transform="translate(1764.65 753.767)">
	<g id="Group_3553">
		<path id="Path_3515" class="st0" d="M-94.1-29c0.7-5,1.5-10,2.2-15c-0.6,0.1-1.3,0.2-1.9,0.3c1.8,3.6,3.6,7.1,5.5,10.7l1.2-1.5
			c-5.3-2.1-10.8-3.7-16.3-5v2c3-0.8,6-1.6,9.1-2.3c1.3-0.3,8.5-3,9.5-1.6c0.1-0.5,0.3-1,0.4-1.4c-5.1,3.7-9.7,8-14,12.6
			c-0.9,1,0.6,2.5,1.5,1.5c4.1-4.5,8.7-8.7,13.6-12.3c0.5-0.3,0.6-0.9,0.4-1.4c-1.4-2.2-3.6-1.5-5.8-1c-5,1.2-10.1,2.6-15.1,3.9
			c-0.6,0.2-0.9,0.7-0.7,1.3c0.1,0.3,0.4,0.6,0.7,0.7c5.5,1.3,11,3,16.3,5c0.9,0.4,1.6-0.8,1.2-1.5c-1.8-3.6-3.6-7.1-5.5-10.7
			c-0.3-0.5-0.9-0.7-1.4-0.4c-0.3,0.1-0.5,0.4-0.5,0.7c-0.7,5-1.5,10-2.2,15c-0.1,0.5,0.2,1,0.6,1.1C-94.7-28.1-94.2-28.4-94.1-29
			C-94.1-28.9-94.1-28.9-94.1-29L-94.1-29z"/>
	</g>
</g>
<g id="Group_3556" transform="translate(1239.644 730.868)">
	<g id="Group_3555">
		<path id="Path_3516" class="st0" d="M-96.1-27.1c0.5-5.7,1.6-11.4,3.1-16.9l-2.1-0.3c0.5,4.4,1.6,8.7,3.2,12.8l1.5-1.2
			c-4-2.4-8.5-3.6-13.1-3.7l0.3,2.1c2.5-0.9,4.9-1.7,7.4-2.5c1.9-0.6,4.9-2.1,6.9-2.1c1.7,0,1.1,0.2,0.6,1.4
			c-0.6,1.1-1.4,2.2-2.3,3.1c-1.5,2.1-3.1,4.1-4.6,6.2c-0.8,1.1,1,2.1,1.8,1.1l6.9-9.3c0.9-1.3,2.3-3.1,0.6-4.4
			c-1.6-1.2-4.6,0.2-6.1,0.6c-4,1.2-7.9,2.5-11.8,3.9c-0.6,0.2-0.9,0.8-0.7,1.3c0.1,0.4,0.5,0.8,1,0.8c4.2,0,8.4,1.1,12,3.4
			c0.7,0.4,1.9-0.3,1.5-1.2c-1.5-3.9-2.6-8-3.1-12.2c0-0.6-0.5-1.1-1.1-1c-0.4,0-0.8,0.3-1,0.7c-1.6,5.7-2.6,11.5-3.1,17.4
			C-98.3-25.8-96.2-25.8-96.1-27.1L-96.1-27.1z"/>
	</g>
</g>
<g id="Group_3558" transform="translate(277.648 729.858)">
	<g id="Group_3557">
		<path id="Path_3517" class="st0" d="M-94.2-28.7c-0.1-4.9,0.2-9.8,1-14.7c-0.6,0.2-1.2,0.3-1.8,0.5c2.9,2.9,5.8,5.7,8.7,8.6
			c0.2-0.6,0.5-1.2,0.7-1.8c-5.9,0.4-11.9,0-17.7-1.3v2c7-2.6,14.1-5.1,21.1-7.7c-0.3-0.6-0.7-1.2-1-1.8
			c-5.6,5.3-10.2,11.4-13.8,18.2c-0.6,1.2,1.2,2.3,1.8,1.1c3.6-6.6,8.1-12.5,13.5-17.7c0.4-0.4,0.4-1.1-0.1-1.5
			c-0.3-0.2-0.6-0.3-0.9-0.3c-7,2.6-14.1,5.1-21.1,7.7c-0.9,0.3-1.1,1.8,0,2c6,1.3,12.1,1.8,18.2,1.3c0.6,0,1-0.5,1-1.1
			c0-0.3-0.1-0.5-0.3-0.7c-2.9-2.9-5.8-5.7-8.7-8.6c-0.5-0.4-1.2-0.4-1.6,0.1c-0.1,0.1-0.2,0.2-0.2,0.4c-0.8,5-1.2,10.1-1.1,15.2
			C-96.2-27.3-94.1-27.3-94.2-28.7L-94.2-28.7z"/>
	</g>
</g>
<g id="Group_3560" transform="translate(546.899 625.036)">
	<g id="Group_3559">
		<path id="Path_3518" class="st0" d="M-148.1-0.5c0.5-7,1-14.1,1.5-21.1l-2.1,0.3c1.8,5.7,3.1,11.5,4.1,17.4
			c0.6-0.3,1.3-0.5,1.9-0.8c-2.3-4-6.5-6.6-11.1-7c0.2,0.7,0.4,1.3,0.5,2c4.7-3.3,9.7-6.1,15-8.4l-1.4-1.4
			c-3.7,5.4-6.9,11.1-9.6,17.1c-0.5,1.2,1.3,2.3,1.8,1.1c2.7-6,5.9-11.7,9.6-17.1c0.7-1-0.6-1.8-1.4-1.4c-5.2,2.4-10.3,5.2-15,8.4
			c-0.5,0.3-0.6,1-0.3,1.5c0.2,0.3,0.5,0.5,0.8,0.5c3.9,0.4,7.3,2.5,9.3,5.9c0.3,0.5,0.9,0.6,1.4,0.4c0.4-0.2,0.6-0.7,0.5-1.2
			c-1-5.9-2.3-11.7-4.1-17.4c-0.2-0.6-0.8-0.9-1.3-0.7c-0.4,0.1-0.7,0.5-0.8,1c-0.5,7-1,14.1-1.5,21.1
			C-150.3,0.9-148.2,0.9-148.1-0.5L-148.1-0.5z"/>
	</g>
</g>
<g id="Group_3562" transform="translate(1502.699 418.568)">
	<g id="Group_3561">
		<path id="Path_3519" class="st0" d="M-99.2-12.5c2.4-10.5,4.8-21,7.2-31.4l-2.1-0.3c0.4,9,2.6,17.7,6.5,25.8l1.4-1.4
			c-5.4-3.2-11.1-5.6-17.1-7.3c0.1,0.6,0.2,1.3,0.3,1.9c7.4-4.7,15.5-8.2,23.9-10.5c-0.3-0.6-0.7-1.2-1-1.8
			c-5.9,6.4-11.8,12.8-17.6,19.2c-0.9,1,0.6,2.5,1.5,1.5c5.9-6.4,11.8-12.8,17.6-19.2c0.4-0.4,0.4-1.1-0.1-1.5
			c-0.3-0.2-0.6-0.3-0.9-0.3c-8.6,2.4-16.8,6-24.4,10.7c-0.5,0.3-0.6,0.9-0.4,1.4c0.1,0.2,0.4,0.4,0.7,0.5c5.8,1.6,11.4,4,16.6,7.1
			c0.5,0.3,1.1,0.2,1.4-0.3c0.2-0.3,0.2-0.8,0-1.1c-3.7-7.7-5.8-16.1-6.2-24.7c-0.1-1.1-1.8-1.5-2.1-0.3c-2.4,10.5-4.8,21-7.2,31.4
			C-101.5-11.8-99.5-11.2-99.2-12.5L-99.2-12.5z"/>
	</g>
</g>
<g id="Group_3562_1_" transform="translate(1502.699 418.568)">
	<g id="Group_3561_1_">
		<path id="Path_3519_1_" class="st0" d="M-756.1,57.5c2.4-10.5,4.8-21,7.2-31.4l-2.1-0.3c0.4,9,2.6,17.7,6.5,25.8l1.4-1.4
			c-5.4-3.2-11.1-5.6-17.1-7.3c0.1,0.6,0.2,1.3,0.3,1.9c7.4-4.7,15.5-8.2,23.9-10.5c-0.3-0.6-0.7-1.2-1-1.8
			c-5.9,6.4-11.8,12.8-17.6,19.2c-0.9,1,0.6,2.5,1.5,1.5c5.9-6.4,11.8-12.8,17.6-19.2c0.4-0.4,0.4-1.1-0.1-1.5
			c-0.3-0.2-0.6-0.3-0.9-0.3c-8.6,2.4-16.8,6-24.4,10.7c-0.5,0.3-0.6,0.9-0.4,1.4c0.1,0.2,0.4,0.4,0.7,0.5c5.8,1.6,11.4,4,16.6,7.1
			c0.5,0.3,1.1,0.2,1.4-0.3c0.2-0.3,0.2-0.8,0-1.1c-3.7-7.7-5.8-16.1-6.2-24.7c-0.1-1.1-1.8-1.5-2.1-0.3c-2.4,10.5-4.8,21-7.2,31.4
			C-758.4,58.2-756.4,58.8-756.1,57.5L-756.1,57.5z"/>
	</g>
</g>
<g id="Group_3564" transform="translate(392.355 574.611)">
	<g id="Group_3563">
		<path id="Path_3520" class="st2" d="M-28.6-116.2c2.3-7.3,3.3-15,3.1-22.7c-0.5,0.3-1.1,0.6-1.6,0.9c2.4,1,4.4,2.6,5.8,4.7
			c0.7,1.1,1.2,2.3,1.6,3.5c-0.3,2.7-1.5,3.9-3.7,3.3c-4.4,1.1-10.3,0-14.9,0c0.2,0.7,0.4,1.3,0.5,2c9.8-4.7,19.3-9.9,28.6-15.6
			c-0.4-0.6-0.8-1.1-1.3-1.6c-6.8,8-13.7,16-20.5,24.1c-0.9,1,0.6,2.5,1.5,1.5c6.8-8,13.7-16,20.5-24.1c0.7-0.9-0.2-2.3-1.3-1.6
			c-9.3,5.6-18.8,10.8-28.6,15.6c-0.5,0.3-0.7,1-0.4,1.5c0.2,0.3,0.5,0.5,0.9,0.5c5.3,0,10.5,0.1,15.8,0c1.7,0,3.6,0.1,4.7-1.6
			c3.2-5.1-4.2-12-8.2-13.8c-0.5-0.3-1.2-0.1-1.5,0.4c-0.1,0.2-0.1,0.3-0.1,0.5c0.3,7.5-0.7,15-3,22.2
			C-31-115.5-29-114.9-28.6-116.2L-28.6-116.2z"/>
	</g>
</g>
<g id="Group_3564_1_" transform="translate(392.355 574.611)">
	<g id="Group_3563_1_">
		<path id="Path_3520_1_" class="st2" d="M217.1-352.2c2.3-7.3,3.3-15,3.1-22.7c-0.5,0.3-1.1,0.6-1.6,0.9c2.4,1,4.4,2.6,5.8,4.7
			c0.7,1.1,1.2,2.3,1.6,3.5c-0.3,2.7-1.5,3.9-3.7,3.3c-4.4,1.1-10.3,0-14.9,0c0.2,0.7,0.4,1.3,0.5,2c9.8-4.7,19.3-9.9,28.6-15.6
			c-0.4-0.6-0.8-1.1-1.3-1.6c-6.8,8-13.7,16-20.5,24.1c-0.9,1,0.6,2.5,1.5,1.5c6.8-8,13.7-16,20.5-24.1c0.7-0.9-0.2-2.3-1.3-1.6
			c-9.3,5.6-18.8,10.8-28.6,15.6c-0.5,0.3-0.7,1-0.4,1.5c0.2,0.3,0.5,0.5,0.9,0.5c5.3,0,10.5,0.1,15.8,0c1.7,0,3.6,0.1,4.7-1.6
			c3.2-5.1-4.2-12-8.2-13.8c-0.5-0.3-1.2-0.1-1.5,0.4c-0.1,0.2-0.1,0.3-0.1,0.5c0.3,7.5-0.7,15-3,22.2
			C214.7-351.5,216.7-350.9,217.1-352.2L217.1-352.2z"/>
	</g>
</g>
<g id="Group_3566" transform="translate(449.613 235.113)">
	<g id="Group_3565">
		<path id="Path_3521" class="st2" d="M-94-17.7c0.1-8.9,0.2-17.8,0.3-26.7c-0.7,0.2-1.3,0.4-2,0.5c3.8,5.4,7.6,10.8,11.3,16.2
			l1.2-1.5c-6.5-2.3-13.3-3.4-20.2-3.3c0.2,0.7,0.4,1.3,0.5,2c5.6-3.7,11.6-6.6,17.9-8.7l-1.3-1.3c-1.6,5.2-3.9,10.2-7,14.7
			c-0.8,1.1,1.1,2.2,1.8,1.1c3.2-4.7,5.6-9.8,7.2-15.2c0.2-0.7-0.5-1.6-1.3-1.3c-6.5,2.2-12.7,5.2-18.4,9c-0.5,0.3-0.7,1-0.3,1.5
			c0.2,0.3,0.5,0.5,0.8,0.5c6.7-0.1,13.3,1,19.6,3.2c0.8,0.3,1.7-0.8,1.2-1.5c-3.8-5.4-7.6-10.8-11.3-16.2c-0.3-0.5-1-0.7-1.5-0.3
			c-0.3,0.2-0.5,0.5-0.5,0.8c-0.1,8.9-0.2,17.8-0.3,26.7C-96.1-16.3-94-16.3-94-17.7L-94-17.7z"/>
	</g>
</g>
<g id="Group_3566_1_" transform="translate(449.613 235.113)">
	<g id="Group_3565_1_">
		<path id="Path_3521_1_" class="st2" d="M404.8,399.5c0.1-8.9,0.2-17.8,0.3-26.7c-0.7,0.2-1.3,0.4-2,0.5
			c3.8,5.4,7.6,10.8,11.3,16.2l1.2-1.5c-6.5-2.3-13.3-3.4-20.2-3.3c0.2,0.7,0.4,1.3,0.5,2c5.6-3.7,11.6-6.6,17.9-8.7l-1.3-1.3
			c-1.6,5.2-3.9,10.2-7,14.7c-0.8,1.1,1.1,2.2,1.8,1.1c3.2-4.7,5.6-9.8,7.2-15.2c0.2-0.7-0.5-1.6-1.3-1.3c-6.5,2.2-12.7,5.2-18.4,9
			c-0.5,0.3-0.7,1-0.3,1.5c0.2,0.3,0.5,0.5,0.8,0.5c6.7-0.1,13.3,1,19.6,3.2c0.8,0.3,1.7-0.8,1.2-1.5c-3.8-5.4-7.6-10.8-11.3-16.2
			c-0.3-0.5-1-0.7-1.5-0.3c-0.3,0.2-0.5,0.5-0.5,0.8c-0.1,8.9-0.2,17.8-0.3,26.7C402.7,400.9,404.8,400.9,404.8,399.5L404.8,399.5z"
			/>
	</g>
</g>
<g id="Group_3568" transform="translate(1477.036 179.261)">
	<g id="Group_3567">
		<path id="Path_3522" class="st2" d="M-184.9-22.3c0-8.5,0.1-16.9,0.1-25.4c-0.4,0.3-0.9,0.7-1.3,1c5.9,2.2,10.2,7.1,11.7,13.2
			l1.5-1.2c-6.4-4.2-13.9-6.4-21.5-6.5l0.3,2.1c7.9-1.5,15.8-3,23.7-4.4l-1.2-1.5c-3.6,4.8-7.6,9.1-12.1,13c-1,0.9,0.5,2.4,1.5,1.5
			c4.6-4,8.8-8.5,12.4-13.4c0.6-0.8-0.4-1.7-1.2-1.5c-7.9,1.5-15.8,3-23.7,4.4c-1.2,0.2-0.9,2,0.3,2.1c7.3,0.1,14.4,2.3,20.5,6.2
			c0.5,0.3,1.1,0.1,1.4-0.4c0.2-0.3,0.2-0.6,0.1-0.8c-1.7-6.7-6.6-12.2-13.1-14.7c-0.6-0.1-1.1,0.2-1.3,0.8c0,0.1,0,0.2,0,0.2
			c0,8.5-0.1,16.9-0.1,25.4C-187-20.9-184.9-20.9-184.9-22.3L-184.9-22.3z"/>
	</g>
</g>
<g id="Group_3570" transform="translate(1727.008 314.608)">
	<g id="Group_3569">
		<path id="Path_3523" class="st2" d="M-95.4-20.5c1.4-7.8,2.8-15.7,4.2-23.5c-0.6,0.1-1.3,0.2-1.9,0.3c3,4.8,5.3,10.1,6.7,15.6
			c0.3-0.4,0.7-0.9,1-1.3c-6,0-12-0.7-17.9-2.1c0.1,0.6,0.2,1.3,0.3,1.9c6.3-4.4,13.5-7.3,21.1-8.5l-1.2-1.5
			c-3.5,4.9-7.6,9.4-12.2,13.3c-1,0.9,0.5,2.4,1.5,1.5c4.7-4.1,9-8.7,12.6-13.8c0.6-0.8-0.4-1.7-1.2-1.5c-7.8,1.3-15.1,4.3-21.6,8.7
			c-0.5,0.3-0.6,0.9-0.4,1.4c0.1,0.2,0.4,0.4,0.7,0.5c6.1,1.5,12.3,2.2,18.5,2.2c0.6,0,1-0.5,1-1c0-0.1,0-0.2,0-0.3
			c-1.5-5.7-3.8-11.1-6.9-16.1c-0.4-0.7-1.8-0.7-1.9,0.3c-1.4,7.8-2.8,15.7-4.2,23.5C-97.7-19.7-95.7-19.2-95.4-20.5L-95.4-20.5z"/>
	</g>
</g>
<g id="Group_3572" transform="translate(1578.929 683.301)">
	<g id="Group_3571">
		<path id="Path_3524" class="st2" d="M-95.3-20.4c-0.4-7.9,0.3-15.9,1.9-23.7c-0.6,0.2-1.2,0.3-1.8,0.5c4.9,3.8,8,9.4,8.6,15.6l1-1
			c-6,0-12-1.5-17.2-4.5c-0.1,0.6-0.2,1.3-0.3,1.9c6.6-2.3,13.1-4.7,19.7-7l-1.2-1.5c-4.8,6.4-9.7,12.8-14.5,19.2
			c-0.8,1.1,1,2.1,1.8,1.1c4.8-6.4,9.7-12.8,14.5-19.2c0.5-0.7-0.4-1.8-1.2-1.5c-6.6,2.3-13.1,4.7-19.7,7c-0.8,0.3-1.1,1.5-0.3,1.9
			c5.6,3.2,11.9,4.8,18.3,4.8c0.6,0,1-0.4,1.1-1c-0.6-6.7-3.9-12.9-9.2-17.1c-0.4-0.4-1.1-0.4-1.5,0c-0.1,0.1-0.2,0.3-0.3,0.5
			c-1.7,8-2.4,16.1-2,24.3C-97.3-19.1-95.2-19.1-95.3-20.4L-95.3-20.4z"/>
	</g>
</g>
<g id="Group_3574" transform="translate(384.827 45.184)">
	<g id="Group_3573">
		<path id="Path_3525" class="st2" d="M674.6,379.4c0.3-6.8,1.8-13.4,4.4-19.7l-2.1-0.3c0.1,4.9,1,9.7,2.9,14.2l1.3-1.3
			c-5.1-0.7-9.9-3-13.7-6.4c-0.2,0.6-0.3,1.2-0.5,1.8c5.7-1,11.6-1.1,17.3-0.3c-0.1-0.6-0.2-1.3-0.3-1.9c-4.2,3.2-8.4,6.4-12.5,9.6
			c-1.1,0.8,0,2.6,1.1,1.8c4.2-3.2,8.4-6.4,12.5-9.6c0.6-0.5,0.8-1.8-0.3-1.9c-6.1-0.9-12.3-0.8-18.4,0.3c-0.8,0.1-1,1.3-0.5,1.8
			c4.1,3.7,9.1,6.1,14.6,6.9c0.7,0.1,1.6-0.5,1.3-1.3c-1.7-4.3-2.7-8.9-2.8-13.6c0-1.3-1.6-1.3-2.1-0.3c-2.7,6.4-4.2,13.3-4.5,20.2
			C672.5,380.8,674.6,380.8,674.6,379.4L674.6,379.4z"/>
	</g>
</g>
<g id="Group_3576" transform="translate(638.548 734.599)">
	<g id="Group_3575">
		<path id="Path_3526" class="st2" d="M-95.5-23.7c-0.3-6.9,0.5-13.8,2.5-20.4c-0.6,0.1-1.3,0.2-1.9,0.3c2.4,4.5,4.9,8.9,7.3,13.4
			l1.2-1.5c-5.6-1.1-11.2-2.3-16.8-3.4v2c7.5-3.1,14.9-6.2,22.4-9.3l-1.2-1.5c-2.7,3.6-5.3,7.3-8,10.9c-0.8,1.1,1,2.1,1.8,1.1
			c2.7-3.6,5.3-7.3,8-10.9c0.5-0.7-0.4-1.9-1.2-1.5c-7.5,3.1-14.9,6.2-22.4,9.3c-0.9,0.4-1.1,1.8,0,2c5.6,1.1,11.2,2.3,16.8,3.4
			c0.6,0.1,1.1-0.2,1.3-0.8c0.1-0.2,0-0.5-0.1-0.7c-2.4-4.5-4.9-8.9-7.3-13.4c-0.3-0.5-0.9-0.6-1.4-0.3c-0.2,0.1-0.4,0.4-0.5,0.6
			c-2,6.8-2.9,13.8-2.6,20.9C-97.5-22.4-95.4-22.4-95.5-23.7L-95.5-23.7z"/>
	</g>
</g>
<g id="Group_3578" transform="translate(645.936 65.291)">
	<g id="Group_3577">
		<path id="Path_3527" class="st2" d="M-95.7-20.4c0.8-8,1.6-15.9,2.5-23.9c-0.6,0.2-1.2,0.5-1.8,0.7c4.3,4.4,7.6,9.8,9.4,15.7
			c0.3-0.4,0.7-0.9,1-1.3c-6.3-0.4-12.6-0.9-18.9-1.3l0.3,2.1c6.7-1.8,13.3-3.7,20-5.5l-1.2-1.5c-1.5,3.2-3.8,6-6.6,8.1
			c-1.1,0.8,0,2.6,1.1,1.8c3.2-2.3,5.7-5.4,7.3-8.9c0.3-0.5,0.1-1.1-0.4-1.4c-0.2-0.1-0.5-0.2-0.8-0.1c-6.7,1.8-13.3,3.7-20,5.5
			c-0.6,0.2-0.9,0.8-0.7,1.3c0.1,0.4,0.5,0.7,1,0.8c6.3,0.4,12.6,0.9,18.9,1.3c0.6,0,1-0.5,1-1c0-0.1,0-0.2,0-0.3
			c-1.9-6.3-5.3-12-9.9-16.6c-0.4-0.4-1.1-0.4-1.5,0.1c-0.2,0.2-0.3,0.4-0.3,0.6c-0.8,8-1.6,15.9-2.5,23.9
			C-97.9-19.1-95.8-19.1-95.7-20.4L-95.7-20.4z"/>
	</g>
</g>
<g id="Group_3580" transform="translate(1086.999 80.348)">
	<g id="Group_3579">
		<path id="Path_3528" class="st2" d="M-99-22.9c1.6-7.1,3.2-14.1,4.7-21.2h-2c3,7.6,6.6,15,10.7,22.1l1.4-1.4
			c-5.9-3.6-12.5-5.9-19.3-6.7c0.2,0.7,0.4,1.3,0.5,2c7.5-5.3,15.7-9.3,24.4-12.1l-1.2-1.5C-84.5-34-91.6-28-99.9-24.6
			c-1.2,0.5-0.7,2.5,0.6,2c8.9-3.6,16.4-9.9,21.4-18c0.3-0.5,0.1-1.1-0.4-1.4c-0.3-0.2-0.6-0.2-0.8-0.1c-8.9,2.8-17.3,6.9-24.9,12.3
			c-0.5,0.3-0.6,1-0.3,1.5c0.2,0.3,0.5,0.5,0.8,0.5c6.5,0.7,12.7,2.9,18.2,6.4c0.5,0.3,1.1,0.2,1.4-0.3c0.2-0.3,0.2-0.8,0-1.1
			c-4-6.9-7.5-14.1-10.4-21.6c-0.3-0.9-1.8-1.1-2,0c-1.6,7.1-3.2,14.1-4.7,21.2C-101.4-22.2-99.3-21.6-99-22.9z"/>
	</g>
</g>
<g id="Group_3582" transform="translate(851.687 48.665)">
	<g id="Group_3581">
		<path id="Path_3529" class="st2" d="M-94.1-33.4c0.6-3.5,1.2-7.1,1.9-10.6l-1.5,0.6c3,1.5,4.9,4.7,4.7,8.1
			c0.6-0.2,1.2-0.5,1.8-0.7c-4.3-4.3-10.2-6.5-16.3-6.2c-1.3,0.1-1.4,2.1,0,2.1c3.3,0.1,6.6,0.2,9.9,0.2l-1-1c0.4,2.5-0.6,5-2.6,6.5
			c-1,0.9,0.5,2.3,1.5,1.5c2.4-1.9,3.6-5,3.2-8c-0.1-0.6-0.4-1-1-1c-3.3-0.1-6.6-0.2-9.9-0.2v2.1c5.5-0.4,10.9,1.7,14.8,5.6
			c0.4,0.4,1,0.4,1.5,0.1c0.2-0.2,0.3-0.5,0.3-0.8c0.2-4.1-2-8-5.7-9.9c-0.5-0.3-1.1-0.1-1.4,0.3c0,0.1-0.1,0.2-0.1,0.3
			c-0.6,3.5-1.2,7.1-1.9,10.6C-96.4-32.7-94.4-32.1-94.1-33.4z"/>
	</g>
</g>
<g id="Group_3584" transform="translate(660.741 449.65)">
	<g id="Group_3583">
		<path id="Path_3530" class="st2" d="M-98.2-24.9c1.6-6.4,3.2-12.8,4.9-19.1h-2c1.5,4.6,3.4,9,5.8,13.2l0.6-1.5
			c-4.9,1-10-0.1-14.1-2.9c-0.1,0.6-0.2,1.3-0.3,1.9c3.8-1.3,7.9-1.7,11.9-1.2l-1-1c-0.9,1.1-1.7,2.1-2.6,3.2
			c-1.3,0.3-0.8,2.3,0.6,2c2.5-0.4,4.3-2.7,4.1-5.2c0-0.6-0.4-1-1-1.1c-4.2-0.5-8.5-0.1-12.5,1.3c-0.6,0.2-0.9,0.8-0.7,1.3
			c0.1,0.2,0.2,0.4,0.4,0.6c4.6,3.1,10.2,4.3,15.7,3.2c0.5-0.1,0.9-0.7,0.7-1.2c0-0.1-0.1-0.2-0.1-0.3c-2.3-4-4.2-8.3-5.6-12.7
			c-0.2-0.6-0.7-0.9-1.3-0.7c-0.3,0.1-0.6,0.4-0.7,0.7c-1.6,6.4-3.2,12.8-4.9,19.1C-100.6-24.2-98.6-23.6-98.2-24.9z"/>
	</g>
</g>
<g id="Group_3586" transform="translate(1119.136 548.347)">
	<g id="Group_3585">
		<path id="Path_3531" class="st2" d="M-95.1,46.7c0.1-5.9,0.2-11.7,0.2-17.6c-0.6,0.2-1.2,0.5-1.8,0.7c2.3,3,4.7,6,7,8.9
			c0.2-0.6,0.3-1.2,0.5-1.8c-4.9,1.3-10,1.7-15,1.3l0.3,2.1c7.1-2.3,13.7-5.7,19.7-10.1l-1.4-1.4c-2.7,5.4-6.5,10.2-11.2,14.1
			c-1,0.9,0.5,2.3,1.5,1.5c4.9-4,8.8-9,11.6-14.6c0.4-0.8-0.5-2.1-1.4-1.4c-5.8,4.3-12.3,7.6-19.2,9.9c-0.6,0.2-0.9,0.8-0.7,1.3
			c0.1,0.4,0.5,0.7,1,0.8c5.2,0.4,10.4-0.1,15.5-1.4c0.6-0.2,0.9-0.9,0.7-1.5c0-0.1-0.1-0.2-0.2-0.3c-2.3-3-4.7-6-7-8.9
			c-0.6-0.8-1.8-0.1-1.8,0.7c-0.1,5.9-0.2,11.7-0.2,17.6C-97.2,48-95.1,48-95.1,46.7L-95.1,46.7z"/>
	</g>
=======
   viewBox="0 0 1681.9 725.6" style="enable-background:new 0 0 1681.9 725.6;" xml:space="preserve">
<style type="text/css">
  .st0{fill:#A29B70;}
  .st1{opacity:0.109;fill:#A29B70;enable-background:new    ;}
  .st2{fill:#A9A29A;}
</style>
<g id="Group_5" transform="translate(104.518 296.643)">
  <g id="Group_4">
    <path id="Path_1731" class="st0" d="M-93-22.8c0.3-6.6-0.4-13.2-2.2-19.5c-0.6,0.3-1.3,0.5-1.9,0.8c2.9,6.5,8.2,11.6,14.8,14.2
      c0.2-0.7,0.4-1.4,0.6-2c-7.3-1.8-14.5-3.3-22-1.9c0.3,0.6,0.5,1.3,0.8,1.9c6.8-4.3,13.4-9.1,19.6-14.2c-0.6-0.3-1.2-0.7-1.8-1
      c-2.5,6.3-6.1,12.1-10.8,17c-0.9,1,0.6,2.5,1.5,1.5c5-5.1,8.8-11.2,11.4-17.9c0.4-1.1-1-1.6-1.8-1c-6.1,5-12.5,9.7-19.2,13.9
      c-0.5,0.3-0.6,1-0.3,1.5c0.2,0.4,0.7,0.5,1.1,0.4c7.1-1.3,14,0.2,20.9,1.9c0.6,0.1,1.1-0.2,1.3-0.8c0.1-0.5-0.2-1-0.7-1.2
      c-6.1-2.4-10.9-7.2-13.5-13.2c-0.5-1.1-2.2-0.3-1.9,0.8c1.7,6.2,2.4,12.6,2.1,19C-95.1-21.4-93-21.5-93-22.8L-93-22.8z"/>
  </g>
</g>
<g id="Group_7" transform="translate(116.948 108.6)">
  <g id="Group_6">
    <path id="Path_1732" class="st0" d="M-95.5-23.8c0.2-5.4,0-10.8-0.6-16.2c-0.6,0.2-1.2,0.5-1.8,0.7c2.9,2.9,5.5,6.1,7.9,9.4
      l0.6-1.5c-4.6,0.8-9.3,0.8-14,0.2c0.1,0.6,0.2,1.3,0.3,1.9c6.3-4.7,12.6-9.3,18.8-14l-1.4-1.4c-3.6,5.8-7.2,11.6-10.8,17.3
      c-0.3,0.5-0.1,1.2,0.4,1.4c0.5,0.3,1.1,0.1,1.4-0.3c3.6-5.8,7.2-11.6,10.8-17.3c0.5-0.8-0.6-2.1-1.4-1.4
      c-6.3,4.7-12.6,9.3-18.8,14c-0.6,0.5-0.7,1.8,0.3,1.9c5,0.7,10.1,0.7,15.1-0.2c0.5-0.1,0.9-0.7,0.7-1.2c0-0.1-0.1-0.2-0.1-0.3
      c-2.5-3.5-5.3-6.8-8.3-9.8c-0.6-0.6-1.9-0.2-1.8,0.7c0.7,5.4,0.9,10.8,0.6,16.2C-97.6-22.5-95.5-22.5-95.5-23.8L-95.5-23.8z"/>
  </g>
</g>
<g id="Group_9" transform="translate(237.381 232.29)">
  <g id="Group_8">
    <path id="Path_1733" class="st0" d="M772.6,61.7c1-6.1,0.5-12.3-1.4-18.1c-0.6,0.3-1.2,0.7-1.8,1c3.6,4.4,7.2,8.9,10.8,13.3
      c0.2-0.6,0.5-1.2,0.7-1.8c-7.2-0.8-14.4-1.7-21.7-2.5c0.2,0.7,0.4,1.3,0.5,2c6.4-3.6,13.4-6,20.7-7.2c-0.3-0.6-0.7-1.2-1-1.8
      c-3.5,3.8-6.6,8-9.2,12.5c-0.3,0.5-0.1,1.2,0.4,1.4c0.5,0.3,1.1,0.1,1.4-0.3c2.6-4.3,5.6-8.4,8.9-12.1c0.4-0.5,0.3-1.2-0.1-1.6
      c-0.2-0.2-0.6-0.3-0.9-0.2c-7.4,1.3-14.6,3.8-21.2,7.4c-1,0.6-0.4,1.8,0.5,2c7.2,0.8,14.4,1.7,21.7,2.5c1,0.1,1.2-1.2,0.7-1.8
      c-3.6-4.4-7.2-8.9-10.8-13.3c-0.4-0.4-1.1-0.4-1.5,0.1c-0.2,0.3-0.3,0.6-0.3,0.9c1.8,5.4,2.3,11.2,1.4,16.9
      C770.3,62.5,772.4,63.1,772.6,61.7L772.6,61.7z"/>
  </g>
</g>
<g id="Group_9_1_" transform="translate(237.381 232.29)">
  <g id="Group_8_1_">
    <path id="Path_1733_1_" class="st0" d="M574.3-14.8c1-6.1,0.5-12.3-1.4-18.1c-0.6,0.3-1.2,0.7-1.8,1c3.6,4.4,7.2,8.9,10.8,13.3
      c0.2-0.6,0.5-1.2,0.7-1.8c-7.2-0.8-14.4-1.7-21.7-2.5c0.2,0.7,0.4,1.3,0.5,2c6.4-3.6,13.4-6,20.7-7.2c-0.3-0.6-0.7-1.2-1-1.8
      c-3.5,3.8-6.6,8-9.2,12.5c-0.3,0.5-0.1,1.2,0.4,1.4c0.5,0.3,1.1,0.1,1.4-0.3c2.6-4.3,5.6-8.4,8.9-12.1c0.4-0.5,0.3-1.2-0.1-1.6
      c-0.2-0.2-0.6-0.3-0.9-0.2c-7.4,1.3-14.6,3.8-21.2,7.4c-1,0.6-0.4,1.8,0.5,2c7.2,0.8,14.4,1.7,21.7,2.5c1,0.1,1.2-1.2,0.7-1.8
      c-3.6-4.4-7.2-8.9-10.8-13.3c-0.4-0.4-1.1-0.4-1.5,0.1c-0.2,0.3-0.3,0.6-0.3,0.9c1.8,5.4,2.3,11.2,1.4,16.9
      C572-14,574.1-13.4,574.3-14.8L574.3-14.8z"/>
  </g>
</g>
<g id="Group_11" transform="translate(305.477 353.937)">
  <g id="Group_10">
    <path id="Path_1734" class="st0" d="M-92-44.2c0,4.1-0.1,8.3-0.1,12.4c0,0.6,0.5,1.1,1.1,1.1c0.5,0,0.9-0.3,1-0.8
      c1-4.3,3.8-7.1,7.4-9.4c0.8-0.5,0.6-2.1-0.5-2c-6.8,0.9-13.6,1-20.4,0.5c-1.2-0.1-1.4,1.8-0.3,2.1c8,2.1,15.9,4.7,23.5,7.9
      c0.5,0.3,1.1,0.1,1.4-0.4c0.2-0.4,0.2-0.9-0.1-1.2c-4.2-4.9-9.6-8.1-15.6-10.5c-1.3-0.5-1.8,1.5-0.6,2c5.6,2.1,10.7,5.5,14.7,9.9
      c0.4-0.6,0.8-1.1,1.3-1.6c-7.8-3.3-15.8-6-24-8.1l-0.3,2.1c6.8,0.5,13.6,0.3,20.4-0.5c-0.2-0.7-0.4-1.3-0.5-2
      c-4,2.6-7.3,5.9-8.4,10.7l2.1,0.3c0-4.1,0.1-8.3,0.1-12.4C-89.9-45.5-92-45.5-92-44.2z"/>
  </g>
</g>
<g id="Group_13" transform="translate(297.299 132.533)">
  <g id="Group_12">
    <path id="Path_1735" class="st0" d="M-92.8-25.7c0-5.6-0.1-11.1-0.1-16.7c-0.7,0.2-1.3,0.4-2,0.5l6,9.9c0.3-0.5,0.6-1.1,0.9-1.6
      c-5.2-0.1-10.3-0.2-15.5-0.4c0.2,0.7,0.4,1.3,0.5,2c6.6-4.3,13.6-8,20.9-11c-0.3-0.6-0.7-1.2-1-1.8c-4.4,4.6-7.8,10.1-9.8,16.1
      c-0.4,1.3,1.6,1.8,2,0.6c1.9-5.7,5.1-10.9,9.3-15.2c0.7-0.7,0-2.2-1-1.8c-7.5,3.1-14.6,6.8-21.4,11.2c-0.5,0.3-0.7,1-0.3,1.5
      c0.2,0.3,0.5,0.5,0.8,0.5c5.2,0.1,10.3,0.2,15.5,0.4c0.6,0,1.1-0.5,1-1.1c0-0.2-0.1-0.4-0.1-0.5l-6-9.9c-0.3-0.5-1-0.7-1.5-0.3
      c-0.3,0.2-0.5,0.5-0.5,0.8c0,5.6,0.1,11.1,0.1,16.7C-94.8-24.3-92.7-24.3-92.8-25.7z"/>
  </g>
</g>
<g id="Group_15" transform="translate(480.508 72.529)">
  <g id="Group_14">
    <path id="Path_1736" class="st0" d="M-73.3,10.3c0.9-4.8,1.9-9.6,2.8-14.4c-0.6,0.1-1.3,0.2-1.9,0.3c2.8,3.7,5.5,7.4,8.3,11
      l1.2-1.5C-68,5-73.2,4.2-78.3,3.5c0.1,0.6,0.2,1.3,0.3,1.9c5-2.9,9.9-5.8,14.9-8.8l-1.4-1.4c-2.6,4.7-5.6,9.1-9.1,13.2
      c-0.9,1,0.6,2.5,1.5,1.5c3.6-4.2,6.7-8.8,9.4-13.7c0.5-0.9-0.5-2-1.4-1.4c-5,2.9-9.9,5.8-14.9,8.8c-0.7,0.4-0.7,1.8,0.3,1.9
      c5.1,0.7,10.3,1.5,15.4,2.2c0.8,0.1,1.8-0.7,1.2-1.5c-2.8-3.7-5.5-7.4-8.3-11c-0.5-0.6-1.7-0.7-1.9,0.3c-0.9,4.8-1.9,9.6-2.8,14.4
      C-75.6,11.1-73.6,11.6-73.3,10.3z"/>
  </g>
</g>
<g id="Group_3526" transform="translate(181.177 426.655)">
  <g id="Group_3525">
    <path id="Path_3492" class="st0" d="M-89.8-14.8c0.2-9.9,0.4-19.7,0.6-29.6c-0.7,0.2-1.3,0.4-2,0.5c3.2,6.6,6.4,13.1,9.6,19.7
      l1.2-1.5c-7.3-3.1-15.2-4.6-23.1-4.4l0.3,2.1c7.4-2.4,14.8-4.8,22.3-7.2l-1.2-1.5c-2.5,5.2-5,10.3-7.5,15.5
      c-0.6,1.2,1.2,2.3,1.8,1.1c2.5-5.2,5-10.3,7.5-15.5c0.3-0.5,0.1-1.1-0.4-1.4c-0.3-0.2-0.6-0.2-0.8-0.1c-7.4,2.4-14.8,4.8-22.3,7.2
      c-0.6,0.2-0.9,0.8-0.7,1.4c0.1,0.4,0.5,0.7,1,0.7c7.8-0.1,15.5,1.4,22.6,4.4c0.9,0.4,1.5-0.8,1.2-1.5c-3.2-6.6-6.4-13.1-9.6-19.7
      c-0.3-0.5-1-0.7-1.5-0.4c-0.3,0.2-0.5,0.5-0.5,0.9c-0.2,9.9-0.4,19.7-0.6,29.6C-91.9-13.5-89.8-13.5-89.8-14.8L-89.8-14.8z"/>
  </g>
</g>
<g id="Group_3528" transform="translate(284.683 543.43)">
  <g id="Group_3527">
    <path id="Path_3493" class="st0" d="M-91.3-17.6c0.6-8.9,0.2-17.9-1-26.7c-0.6,0.3-1.3,0.5-1.9,0.8c3.5,7.5,7,15.1,10.6,22.6
      l1.2-1.5c-7-2.9-13.9-5.8-20.9-8.7v2c7.4-1.4,14.8-2,22.3-1.9c-0.2-0.6-0.5-1.2-0.7-1.8c-3.7,3.5-7.5,7-11.2,10.5
      c-1,0.9,0.5,2.4,1.5,1.5c3.7-3.5,7.5-7,11.2-10.5c0.4-0.4,0.4-1.1-0.1-1.5c-0.2-0.2-0.4-0.3-0.6-0.3c-7.7-0.2-15.4,0.5-22.9,1.9
      c-1.1,0.2-0.8,1.7,0,2c7,2.9,13.9,5.8,20.9,8.7c0.9,0.4,1.5-0.8,1.2-1.5c-3.5-7.5-7-15.1-10.6-22.6c-0.5-1.2-2.1-0.3-1.9,0.8
      c1.2,8.7,1.5,17.5,1,26.2C-93.4-16.3-91.3-16.3-91.3-17.6z"/>
  </g>
</g>
<g id="Group_3530" transform="translate(122.799 574.747)">
  <g id="Group_3529">
    <path id="Path_3494" class="st0" d="M-91.3-18.9c0.7-7.7,0.1-15.6-1.8-23.1l-1.3,1.3c5.8,2.4,10.3,7.3,12.2,13.3l1.3-1.3
      c-7.4-1.6-14.9-3.2-22.3-4.8c0.1,0.6,0.2,1.3,0.3,1.9l25.5-11.7c-0.4-0.6-0.8-1.1-1.3-1.6c-5.4,6.4-10.8,12.9-16.2,19.3
      c-0.9,1,0.6,2.5,1.5,1.5C-88-30.5-82.6-37-77.2-43.4c0.4-0.4,0.4-1.1,0-1.5c-0.3-0.3-0.9-0.4-1.3-0.1L-104-33.3
      c-0.5,0.3-0.6,0.9-0.3,1.4c0.1,0.2,0.4,0.4,0.6,0.5c7.4,1.6,14.9,3.2,22.3,4.8c0.6,0.1,1.2-0.2,1.3-0.8c0-0.2,0-0.3,0-0.5
      c-2.1-6.7-7.1-12.2-13.6-14.8c-0.8-0.3-1.5,0.6-1.3,1.3c1.8,7.4,2.4,15,1.7,22.6C-93.5-17.6-91.4-17.6-91.3-18.9L-91.3-18.9z"/>
  </g>
</g>
<g id="Group_3530_1_" transform="translate(122.799 574.747)">
  <g id="Group_3529_1_">
    <path id="Path_3494_1_" class="st0" d="M1330.3-512.3c0.7-7.7,0.1-15.6-1.8-23.1l-1.3,1.3c5.8,2.4,10.3,7.3,12.2,13.3l1.3-1.3
      c-7.4-1.6-14.9-3.2-22.3-4.8c0.1,0.6,0.2,1.3,0.3,1.9l25.5-11.7c-0.4-0.6-0.8-1.1-1.3-1.6c-5.4,6.4-10.8,12.9-16.2,19.3
      c-0.9,1,0.6,2.5,1.5,1.5c5.4-6.4,10.8-12.9,16.2-19.3c0.4-0.4,0.4-1.1,0-1.5c-0.3-0.3-0.9-0.4-1.3-0.1l-25.5,11.7
      c-0.5,0.3-0.6,0.9-0.3,1.4c0.1,0.2,0.4,0.4,0.6,0.5c7.4,1.6,14.9,3.2,22.3,4.8c0.6,0.1,1.2-0.2,1.3-0.8c0-0.2,0-0.3,0-0.5
      c-2.1-6.7-7.1-12.2-13.6-14.8c-0.8-0.3-1.5,0.6-1.3,1.3c1.8,7.4,2.4,15,1.7,22.6C1328.1-511,1330.2-511,1330.3-512.3L1330.3-512.3
      z"/>
  </g>
</g>
<g id="Group_3532" transform="translate(455.213 434.989)">
  <g id="Group_3531">
    <path id="Path_3495" class="st0" d="M-54.8-93.7c-2.1-9.7-4.1-19.3-6.2-29c-0.7,0.2-1.3,0.4-2,0.6c3.1,7.7,8.1,14.5,14.6,19.7
      c0.4-0.6,0.8-1.1,1.3-1.6c-5.7-3-12-4.4-18.4-4.3c0.2,0.7,0.4,1.3,0.5,2c5.1-3.8,10.1-7.6,15.2-11.5l-1.5-0.6
      c0.8,5.4-1.4,10.9-5.9,14.1c-1.1,0.8,0,2.6,1.1,1.8c5.2-3.8,7.9-10.1,6.9-16.5c-0.1-0.5-0.7-0.9-1.2-0.7c-0.1,0-0.2,0.1-0.3,0.1
      c-5.1,3.8-10.1,7.6-15.2,11.5c-0.5,0.3-0.7,1-0.3,1.5c0.2,0.3,0.5,0.5,0.8,0.5c6-0.1,12,1.2,17.4,4c1,0.5,2.3-0.9,1.3-1.6
      c-6.2-4.9-11.1-11.4-14.1-18.8c-0.2-0.6-0.7-0.9-1.3-0.7c-0.6,0.2-0.9,0.7-0.7,1.3c2.1,9.7,4.1,19.3,6.2,29
      C-56.5-91.8-54.5-92.3-54.8-93.7L-54.8-93.7z"/>
  </g>
</g>
<g id="Group_3538" transform="translate(1355.6 371.7)">
  <g id="Group_3537">
    <g id="Group_3536">
      <g id="Group_3535">
        <path id="Path_3496" class="st1" d="M-96.1-37.3c0.6,0-0.5-1-0.5-1c-0.4-0.4-1.6-1.9-2.2-1.9s0.5,1,0.5,1
          C-98-38.7-96.8-37.3-96.1-37.3z"/>
        <path id="Path_3497" class="st1" d="M-95.8-34.4c0.5,0-0.8-2-1.3-2C-97.6-36.5-96.2-34.4-95.8-34.4z"/>
        <path id="Path_3498" class="st1" d="M-97.6-39c-0.1-0.3-0.3-0.6-0.6-0.8c-0.9-0.8-1.8-1.7-2.7-2.5c-0.6-0.5-2.6-2.9-3.6-2.9
          c0.1,0.3,0.3,0.6,0.6,0.8c0.9,0.8,1.8,1.7,2.7,2.5C-100.7-41.4-98.7-39-97.6-39z"/>
        <path id="Path_3499" class="st1" d="M-97.5-37.6c0-0.3-0.1-0.6-0.4-0.7c-0.6-0.8-1.3-1.5-1.9-2.2c-0.4-0.4-1.9-2.6-2.7-2.6
          c0,0.3,0.1,0.6,0.4,0.7c0.6,0.8,1.3,1.5,1.9,2.2C-99.8-39.8-98.3-37.6-97.5-37.6z"/>
        <path id="Path_3500" class="st1" d="M-95.7-37.6c0.5,0-0.3-0.7-0.3-0.7c-0.3-0.3-1.1-1.1-1.5-1.1c-0.5,0,0.3,0.7,0.3,0.7
          C-96.9-38.4-96.2-37.6-95.7-37.6z"/>
        <path id="Path_3501" class="st1" d="M-97.7-39.5c0-0.3-0.2-0.5-0.4-0.6c-0.7-0.6-1.4-1.3-2.1-1.9c-0.6-0.5-2-2.1-2.9-2.1
          c0,0.3,0.2,0.5,0.4,0.6c0.7,0.6,1.4,1.3,2.1,1.9C-100.1-41.1-98.6-39.5-97.7-39.5z"/>
        <path id="Path_3502" class="st1" d="M-97.1-36.5c0-0.3-0.2-0.6-0.4-0.8c-0.7-0.9-1.4-1.8-2.1-2.6c-0.3-0.4-2.1-3.1-2.9-3.1
          c0,0.3,0.2,0.6,0.4,0.8c0.7,0.9,1.4,1.8,2.1,2.6C-99.6-39.2-97.9-36.5-97.1-36.5z"/>
        <path id="Path_3503" class="st1" d="M-96.4-38.6c0.4,0-0.9-1.4-1.3-1.4C-98.2-39.9-96.9-38.6-96.4-38.6z"/>
        <path id="Path_3504" class="st1" d="M-97.3-37.9c-0.1-0.4-0.3-0.7-0.6-0.9c-0.9-1-1.8-2-2.8-2.9c-0.9-1-1.9-1.9-2.9-2.9
          c0.1-0.3,0-0.6-0.3-0.7c-0.3-0.1-0.6,0-0.7,0.3s0,0.6,0.3,0.7c0.1,0.1,0.3,0.1,0.4,0c0.9,1,1.8,2,2.8,2.9c0.9,1,1.9,1.9,2.9,2.9
          C-98-38.2-97.6-38-97.3-37.9z"/>
        <path id="Path_3505" class="st1" d="M-97.4-38.5c0.6,0-0.6-1-0.6-1c-0.4-0.4-1.8-2.1-2.5-2.1c-0.6,0,0.6,1,0.6,1
          C-99.5-40.2-98.1-38.5-97.4-38.5z"/>
        <path id="Path_3506" class="st1" d="M-95.8-38.6c0.4,0-0.8-1.2-1.2-1.2S-96.2-38.6-95.8-38.6z"/>
        <path id="Path_3507" class="st1" d="M-97.6-37.4c0-0.4-0.2-0.7-0.5-0.9c-0.7-0.9-1.5-1.9-2.3-2.8c-0.4-0.4-2.3-3.3-3.2-3.3
          c0,0.4,0.2,0.7,0.5,0.9c0.7,0.9,1.5,1.9,2.3,2.8C-100.4-40.2-98.5-37.4-97.6-37.4z"/>
      </g>
    </g>
  </g>
</g>
<g id="Group_3540" transform="translate(1381.214 303.989)">
  <g id="Group_3539">
    <path id="Path_3508" class="st0" d="M-92.9-15.7c-2.1-9.7-4.1-19.3-6.2-29c-0.7,0.2-1.4,0.4-2,0.6c3.1,7.7,8.1,14.5,14.6,19.7
      c0.4-0.6,0.8-1.1,1.3-1.6c-5.7-3-12-4.4-18.4-4.3c0.2,0.7,0.4,1.3,0.5,2c5.1-3.8,10.1-7.6,15.2-11.5l-1.5-0.6
      c0.8,5.4-1.4,10.9-5.9,14.1c-1.1,0.8,0,2.6,1.1,1.8c5.2-3.8,7.9-10.1,6.9-16.5c-0.1-0.5-0.7-0.9-1.2-0.7c-0.1,0-0.2,0.1-0.3,0.1
      c-5.1,3.8-10.1,7.6-15.2,11.5c-0.5,0.3-0.7,1-0.3,1.5c0.2,0.3,0.5,0.5,0.8,0.5c6-0.1,12,1.2,17.4,4c1,0.5,2.3-0.9,1.3-1.6
      c-6.2-4.9-11.1-11.4-14.1-18.8c-0.2-0.6-0.7-0.9-1.3-0.7c-0.6,0.2-0.9,0.7-0.7,1.3c2.1,9.7,4.1,19.3,6.2,29
      C-94.6-13.8-92.6-14.3-92.9-15.7L-92.9-15.7z"/>
  </g>
</g>
<g id="Group_3542" transform="translate(1462.55 572.444)">
  <g id="Group_3541">
    <path id="Path_3509" class="st0" d="M-82.5,20.7C-82.3,12.9-82.2,5-82-2.8l-2.1,0.3c2,5.6,3.2,11.4,3.4,17.3
      c0.4-0.3,0.9-0.7,1.3-1c-6.4-1.5-12.8-2.9-19.2-4.4v2c7.1-1.3,14.2-2.6,21.3-3.8c-0.4-0.3-0.9-0.7-1.3-1c0.1,2.1,0.2,4.1,0.3,6.2
      c0.1,1.3,2.2,1.4,2.1,0c-0.1-2.1-0.2-4.1-0.3-6.2c0-0.6-0.5-1-1.1-1c-0.1,0-0.2,0-0.2,0C-84.9,6.9-92,8.2-99.1,9.4
      c-0.6,0.2-0.9,0.7-0.7,1.3c0.1,0.3,0.4,0.6,0.7,0.7c6.4,1.5,12.8,2.9,19.2,4.4c0.6,0.1,1.4-0.3,1.3-1C-78.8,8.7-79.9,2.6-82-3.1
      c-0.2-0.6-0.8-0.9-1.3-0.7c-0.4,0.1-0.7,0.5-0.8,1c-0.2,7.8-0.3,15.7-0.5,23.5c0,0.6,0.5,1,1.1,1C-83,21.6-82.5,21.2-82.5,20.7
      L-82.5,20.7z"/>
  </g>
</g>
<g id="Group_3544" transform="translate(1598.18 285.441)">
  <g id="Group_3543">
    <path id="Path_3510" class="st0" d="M-93-19.8c-2-8.2-4-16.3-5.9-24.5l-1.3,1.3c3.7,1.5,10,6.1,9.7,10.8
      c-0.4,5.7-9.6,1.4-12.3-0.3c0.1,0.5,0.1,1.1,0.2,1.6c1.2-1.4,2.6-2.6,4.1-3.6c0.4-0.2,0.8-0.5,1.2-0.7c2.8-2.1,3.5-1.1,2.4,2.8
      c-0.3,0.5-0.1,1.2,0.4,1.4c0.5,0.3,1.1,0.1,1.4-0.3c1.4-2,1.4-4.7,0.2-6.8c-0.3-0.4-0.7-0.6-1.2-0.5c-3.9,1.1-7.4,3.3-10.1,6.3
      c-0.4,0.4-0.4,1-0.1,1.4c0.1,0.1,0.2,0.2,0.3,0.2c4.4,3,9.8,3.9,15,2.7c0.4-0.1,0.8-0.5,0.8-1c-0.3-7.2-4.9-13.6-11.7-16.1
      c-0.8-0.3-1.5,0.6-1.3,1.3c2,8.2,4,16.3,5.9,24.5C-94.7-17.9-92.7-18.5-93-19.8L-93-19.8z"/>
  </g>
</g>
<g id="Group_3546" transform="translate(1269.113 508.751)">
  <g id="Group_3545">
    <path id="Path_3511" class="st0" d="M-96.6-24c1.3-6.4,1.9-12.9,1.7-19.4H-97c0.2,5.3,1.6,10.5,4.2,15.2l1.2-1.5
      c-3.9-0.7-7.8-0.9-11.7-0.4c0.2,0.7,0.4,1.3,0.5,2c7.1-4.8,13.9-9.9,20.5-15.3l-1.5-1.5c-4.5,4.3-8.5,9.2-11.9,14.5
      c-0.7,1.1,1.1,2.2,1.8,1.1c3.2-5.2,7.1-9.9,11.5-14.1c1-1-0.5-2.3-1.5-1.5C-90.4-39.6-97.1-34.7-104-30c-0.8,0.5-0.6,2.1,0.5,2
      c3.7-0.5,7.4-0.4,11.1,0.3c0.6,0.2,1.1-0.2,1.3-0.7c0.1-0.3,0-0.6-0.1-0.8c-2.5-4.3-3.8-9.2-3.9-14.2c0-0.6-0.5-1-1.1-1
      c-0.5,0-1,0.5-1,1c0.2,6.3-0.3,12.6-1.6,18.8C-98.9-23.3-96.9-22.7-96.6-24L-96.6-24z"/>
  </g>
</g>
<g id="Group_3548" transform="translate(1688.355 533.468)">
  <g id="Group_3547">
    <path id="Path_3512" class="st0" d="M-96.6-20.2l3.9-23.7l-2.1-0.3c0.4,5.9,1.5,11.8,3.4,17.4l1.3-1.3c-4.4-1.8-8.6-3.7-12.9-5.8
      c-0.2,0.7-0.4,1.3-0.5,2c7.2-0.1,14-3.9,20.6-6.6c-0.3-0.6-0.7-1.2-1-1.8c-3.8,4.6-7.6,9.1-11.4,13.7c-0.9,1,0.6,2.5,1.5,1.5
      c3.8-4.6,7.6-9.1,11.4-13.7c0.6-0.7,0.1-2.2-1-1.8c-6.3,2.6-13.1,6.4-20.1,6.5c-0.6,0-1.1,0.5-1,1.1c0,0.4,0.2,0.7,0.5,0.9
      c4.4,2.2,8.8,4.2,13.4,6c0.7,0.3,1.5-0.6,1.3-1.3c-1.9-5.4-3-11.1-3.3-16.8c-0.1-1.1-1.9-1.5-2.1-0.3l-3.9,23.7
      C-98.9-19.4-96.9-18.8-96.6-20.2L-96.6-20.2z"/>
  </g>
</g>
<g id="Group_3550" transform="translate(1728.268 125.95)">
  <g id="Group_3549">
    <path id="Path_3513" class="st0" d="M-97.3-18.6c2-8.5,4.2-17,6.5-25.5h-2c1.6,6.3,3,12.6,2.2,19.2c0.7-0.2,1.3-0.4,2-0.5
      c-3.3-5.3-8.5-9.2-14.6-10.7l-0.3,2.1c6.1-0.7,12.1-2,18-3.8l-1.2-1.5C-90.9-33.6-95-27.9-98.9-22c-0.8,1.1,1.1,2.2,1.8,1.1
      c3.9-5.9,8-11.6,12.2-17.3c0.6-0.7-0.4-1.8-1.2-1.5c-5.7,1.8-11.5,3-17.4,3.7c-0.6,0-1.1,0.5-1,1.1c0,0.4,0.3,0.8,0.7,1
      c5.6,1.4,10.4,4.9,13.4,9.8c0.3,0.5,1,0.6,1.5,0.3c0.3-0.2,0.5-0.5,0.5-0.8c0.8-6.8-0.6-13.2-2.3-19.8c-0.2-0.6-0.7-0.9-1.3-0.7
      c-0.3,0.1-0.6,0.4-0.7,0.7c-2.4,8.4-4.5,16.9-6.5,25.5C-99.6-17.8-97.6-17.3-97.3-18.6L-97.3-18.6z"/>
  </g>
</g>
<g id="Group_3552" transform="translate(1242.599 155.874)">
  <g id="Group_3551">
    <path id="Path_3514" class="st0" d="M-96.2-22.1c-0.4-7.6-1.4-15.1-3.1-22.5c-0.6,0.3-1.3,0.5-1.9,0.8c2.4,4.8,4.8,9.7,7.2,14.5
      l1.2-1.5c-3.5-0.9-7-1.7-10.5-2.6c0.1,0.6,0.2,1.3,0.3,1.9c4.9-2.6,9.7-5.2,14.6-7.9l-1.4-1.4c-2.9,5.1-5.7,10.3-8.6,15.4
      c-0.7,1.2,1.2,2.2,1.8,1.1c2.9-5.1,5.7-10.3,8.6-15.4c0.3-0.5,0.1-1.1-0.4-1.4c-0.3-0.2-0.7-0.2-1,0c-4.9,2.6-9.7,5.2-14.6,7.9
      c-0.5,0.3-0.6,0.9-0.3,1.4c0.1,0.2,0.4,0.4,0.6,0.5c3.5,0.9,7,1.7,10.5,2.6c0.6,0.1,1.1-0.2,1.3-0.8c0.1-0.2,0-0.5-0.1-0.7
      c-2.4-4.8-4.8-9.7-7.2-14.5c-0.5-1.1-2.2-0.3-1.9,0.8c1.6,7.2,2.6,14.6,3,22C-98.3-20.8-96.2-20.8-96.2-22.1L-96.2-22.1z"/>
  </g>
</g>
<g id="Group_3554" transform="translate(1764.65 753.767)">
  <g id="Group_3553">
    <path id="Path_3515" class="st0" d="M-94.1-29c0.7-5,1.5-10,2.2-15c-0.6,0.1-1.3,0.2-1.9,0.3c1.8,3.6,3.6,7.1,5.5,10.7l1.2-1.5
      c-5.3-2.1-10.8-3.7-16.3-5v2c3-0.8,6-1.6,9.1-2.3c1.3-0.3,8.5-3,9.5-1.6c0.1-0.5,0.3-1,0.4-1.4c-5.1,3.7-9.7,8-14,12.6
      c-0.9,1,0.6,2.5,1.5,1.5c4.1-4.5,8.7-8.7,13.6-12.3c0.5-0.3,0.6-0.9,0.4-1.4c-1.4-2.2-3.6-1.5-5.8-1c-5,1.2-10.1,2.6-15.1,3.9
      c-0.6,0.2-0.9,0.7-0.7,1.3c0.1,0.3,0.4,0.6,0.7,0.7c5.5,1.3,11,3,16.3,5c0.9,0.4,1.6-0.8,1.2-1.5c-1.8-3.6-3.6-7.1-5.5-10.7
      c-0.3-0.5-0.9-0.7-1.4-0.4c-0.3,0.1-0.5,0.4-0.5,0.7c-0.7,5-1.5,10-2.2,15c-0.1,0.5,0.2,1,0.6,1.1C-94.7-28.1-94.2-28.4-94.1-29
      C-94.1-28.9-94.1-28.9-94.1-29L-94.1-29z"/>
  </g>
</g>
<g id="Group_3556" transform="translate(1239.644 730.868)">
  <g id="Group_3555">
    <path id="Path_3516" class="st0" d="M-96.1-27.1c0.5-5.7,1.6-11.4,3.1-16.9l-2.1-0.3c0.5,4.4,1.6,8.7,3.2,12.8l1.5-1.2
      c-4-2.4-8.5-3.6-13.1-3.7l0.3,2.1c2.5-0.9,4.9-1.7,7.4-2.5c1.9-0.6,4.9-2.1,6.9-2.1c1.7,0,1.1,0.2,0.6,1.4
      c-0.6,1.1-1.4,2.2-2.3,3.1c-1.5,2.1-3.1,4.1-4.6,6.2c-0.8,1.1,1,2.1,1.8,1.1l6.9-9.3c0.9-1.3,2.3-3.1,0.6-4.4
      c-1.6-1.2-4.6,0.2-6.1,0.6c-4,1.2-7.9,2.5-11.8,3.9c-0.6,0.2-0.9,0.8-0.7,1.3c0.1,0.4,0.5,0.8,1,0.8c4.2,0,8.4,1.1,12,3.4
      c0.7,0.4,1.9-0.3,1.5-1.2c-1.5-3.9-2.6-8-3.1-12.2c0-0.6-0.5-1.1-1.1-1c-0.4,0-0.8,0.3-1,0.7c-1.6,5.7-2.6,11.5-3.1,17.4
      C-98.3-25.8-96.2-25.8-96.1-27.1L-96.1-27.1z"/>
  </g>
</g>
<g id="Group_3558" transform="translate(277.648 729.858)">
  <g id="Group_3557">
    <path id="Path_3517" class="st0" d="M-94.2-28.7c-0.1-4.9,0.2-9.8,1-14.7c-0.6,0.2-1.2,0.3-1.8,0.5c2.9,2.9,5.8,5.7,8.7,8.6
      c0.2-0.6,0.5-1.2,0.7-1.8c-5.9,0.4-11.9,0-17.7-1.3v2c7-2.6,14.1-5.1,21.1-7.7c-0.3-0.6-0.7-1.2-1-1.8
      c-5.6,5.3-10.2,11.4-13.8,18.2c-0.6,1.2,1.2,2.3,1.8,1.1c3.6-6.6,8.1-12.5,13.5-17.7c0.4-0.4,0.4-1.1-0.1-1.5
      c-0.3-0.2-0.6-0.3-0.9-0.3c-7,2.6-14.1,5.1-21.1,7.7c-0.9,0.3-1.1,1.8,0,2c6,1.3,12.1,1.8,18.2,1.3c0.6,0,1-0.5,1-1.1
      c0-0.3-0.1-0.5-0.3-0.7c-2.9-2.9-5.8-5.7-8.7-8.6c-0.5-0.4-1.2-0.4-1.6,0.1c-0.1,0.1-0.2,0.2-0.2,0.4c-0.8,5-1.2,10.1-1.1,15.2
      C-96.2-27.3-94.1-27.3-94.2-28.7L-94.2-28.7z"/>
  </g>
</g>
<g id="Group_3560" transform="translate(546.899 625.036)">
  <g id="Group_3559">
    <path id="Path_3518" class="st0" d="M-148.1-0.5c0.5-7,1-14.1,1.5-21.1l-2.1,0.3c1.8,5.7,3.1,11.5,4.1,17.4
      c0.6-0.3,1.3-0.5,1.9-0.8c-2.3-4-6.5-6.6-11.1-7c0.2,0.7,0.4,1.3,0.5,2c4.7-3.3,9.7-6.1,15-8.4l-1.4-1.4
      c-3.7,5.4-6.9,11.1-9.6,17.1c-0.5,1.2,1.3,2.3,1.8,1.1c2.7-6,5.9-11.7,9.6-17.1c0.7-1-0.6-1.8-1.4-1.4c-5.2,2.4-10.3,5.2-15,8.4
      c-0.5,0.3-0.6,1-0.3,1.5c0.2,0.3,0.5,0.5,0.8,0.5c3.9,0.4,7.3,2.5,9.3,5.9c0.3,0.5,0.9,0.6,1.4,0.4c0.4-0.2,0.6-0.7,0.5-1.2
      c-1-5.9-2.3-11.7-4.1-17.4c-0.2-0.6-0.8-0.9-1.3-0.7c-0.4,0.1-0.7,0.5-0.8,1c-0.5,7-1,14.1-1.5,21.1
      C-150.3,0.9-148.2,0.9-148.1-0.5L-148.1-0.5z"/>
  </g>
</g>
<g id="Group_3562" transform="translate(1502.699 418.568)">
  <g id="Group_3561">
    <path id="Path_3519" class="st0" d="M-99.2-12.5c2.4-10.5,4.8-21,7.2-31.4l-2.1-0.3c0.4,9,2.6,17.7,6.5,25.8l1.4-1.4
      c-5.4-3.2-11.1-5.6-17.1-7.3c0.1,0.6,0.2,1.3,0.3,1.9c7.4-4.7,15.5-8.2,23.9-10.5c-0.3-0.6-0.7-1.2-1-1.8
      c-5.9,6.4-11.8,12.8-17.6,19.2c-0.9,1,0.6,2.5,1.5,1.5c5.9-6.4,11.8-12.8,17.6-19.2c0.4-0.4,0.4-1.1-0.1-1.5
      c-0.3-0.2-0.6-0.3-0.9-0.3c-8.6,2.4-16.8,6-24.4,10.7c-0.5,0.3-0.6,0.9-0.4,1.4c0.1,0.2,0.4,0.4,0.7,0.5c5.8,1.6,11.4,4,16.6,7.1
      c0.5,0.3,1.1,0.2,1.4-0.3c0.2-0.3,0.2-0.8,0-1.1c-3.7-7.7-5.8-16.1-6.2-24.7c-0.1-1.1-1.8-1.5-2.1-0.3c-2.4,10.5-4.8,21-7.2,31.4
      C-101.5-11.8-99.5-11.2-99.2-12.5L-99.2-12.5z"/>
  </g>
</g>
<g id="Group_3562_1_" transform="translate(1502.699 418.568)">
  <g id="Group_3561_1_">
    <path id="Path_3519_1_" class="st0" d="M-756.1,57.5c2.4-10.5,4.8-21,7.2-31.4l-2.1-0.3c0.4,9,2.6,17.7,6.5,25.8l1.4-1.4
      c-5.4-3.2-11.1-5.6-17.1-7.3c0.1,0.6,0.2,1.3,0.3,1.9c7.4-4.7,15.5-8.2,23.9-10.5c-0.3-0.6-0.7-1.2-1-1.8
      c-5.9,6.4-11.8,12.8-17.6,19.2c-0.9,1,0.6,2.5,1.5,1.5c5.9-6.4,11.8-12.8,17.6-19.2c0.4-0.4,0.4-1.1-0.1-1.5
      c-0.3-0.2-0.6-0.3-0.9-0.3c-8.6,2.4-16.8,6-24.4,10.7c-0.5,0.3-0.6,0.9-0.4,1.4c0.1,0.2,0.4,0.4,0.7,0.5c5.8,1.6,11.4,4,16.6,7.1
      c0.5,0.3,1.1,0.2,1.4-0.3c0.2-0.3,0.2-0.8,0-1.1c-3.7-7.7-5.8-16.1-6.2-24.7c-0.1-1.1-1.8-1.5-2.1-0.3c-2.4,10.5-4.8,21-7.2,31.4
      C-758.4,58.2-756.4,58.8-756.1,57.5L-756.1,57.5z"/>
  </g>
</g>
<g id="Group_3564" transform="translate(392.355 574.611)">
  <g id="Group_3563">
    <path id="Path_3520" class="st2" d="M-28.6-116.2c2.3-7.3,3.3-15,3.1-22.7c-0.5,0.3-1.1,0.6-1.6,0.9c2.4,1,4.4,2.6,5.8,4.7
      c0.7,1.1,1.2,2.3,1.6,3.5c-0.3,2.7-1.5,3.9-3.7,3.3c-4.4,1.1-10.3,0-14.9,0c0.2,0.7,0.4,1.3,0.5,2c9.8-4.7,19.3-9.9,28.6-15.6
      c-0.4-0.6-0.8-1.1-1.3-1.6c-6.8,8-13.7,16-20.5,24.1c-0.9,1,0.6,2.5,1.5,1.5c6.8-8,13.7-16,20.5-24.1c0.7-0.9-0.2-2.3-1.3-1.6
      c-9.3,5.6-18.8,10.8-28.6,15.6c-0.5,0.3-0.7,1-0.4,1.5c0.2,0.3,0.5,0.5,0.9,0.5c5.3,0,10.5,0.1,15.8,0c1.7,0,3.6,0.1,4.7-1.6
      c3.2-5.1-4.2-12-8.2-13.8c-0.5-0.3-1.2-0.1-1.5,0.4c-0.1,0.2-0.1,0.3-0.1,0.5c0.3,7.5-0.7,15-3,22.2
      C-31-115.5-29-114.9-28.6-116.2L-28.6-116.2z"/>
  </g>
</g>
<g id="Group_3564_1_" transform="translate(392.355 574.611)">
  <g id="Group_3563_1_">
    <path id="Path_3520_1_" class="st2" d="M217.1-352.2c2.3-7.3,3.3-15,3.1-22.7c-0.5,0.3-1.1,0.6-1.6,0.9c2.4,1,4.4,2.6,5.8,4.7
      c0.7,1.1,1.2,2.3,1.6,3.5c-0.3,2.7-1.5,3.9-3.7,3.3c-4.4,1.1-10.3,0-14.9,0c0.2,0.7,0.4,1.3,0.5,2c9.8-4.7,19.3-9.9,28.6-15.6
      c-0.4-0.6-0.8-1.1-1.3-1.6c-6.8,8-13.7,16-20.5,24.1c-0.9,1,0.6,2.5,1.5,1.5c6.8-8,13.7-16,20.5-24.1c0.7-0.9-0.2-2.3-1.3-1.6
      c-9.3,5.6-18.8,10.8-28.6,15.6c-0.5,0.3-0.7,1-0.4,1.5c0.2,0.3,0.5,0.5,0.9,0.5c5.3,0,10.5,0.1,15.8,0c1.7,0,3.6,0.1,4.7-1.6
      c3.2-5.1-4.2-12-8.2-13.8c-0.5-0.3-1.2-0.1-1.5,0.4c-0.1,0.2-0.1,0.3-0.1,0.5c0.3,7.5-0.7,15-3,22.2
      C214.7-351.5,216.7-350.9,217.1-352.2L217.1-352.2z"/>
  </g>
</g>
<g id="Group_3566" transform="translate(449.613 235.113)">
  <g id="Group_3565">
    <path id="Path_3521" class="st2" d="M-94-17.7c0.1-8.9,0.2-17.8,0.3-26.7c-0.7,0.2-1.3,0.4-2,0.5c3.8,5.4,7.6,10.8,11.3,16.2
      l1.2-1.5c-6.5-2.3-13.3-3.4-20.2-3.3c0.2,0.7,0.4,1.3,0.5,2c5.6-3.7,11.6-6.6,17.9-8.7l-1.3-1.3c-1.6,5.2-3.9,10.2-7,14.7
      c-0.8,1.1,1.1,2.2,1.8,1.1c3.2-4.7,5.6-9.8,7.2-15.2c0.2-0.7-0.5-1.6-1.3-1.3c-6.5,2.2-12.7,5.2-18.4,9c-0.5,0.3-0.7,1-0.3,1.5
      c0.2,0.3,0.5,0.5,0.8,0.5c6.7-0.1,13.3,1,19.6,3.2c0.8,0.3,1.7-0.8,1.2-1.5c-3.8-5.4-7.6-10.8-11.3-16.2c-0.3-0.5-1-0.7-1.5-0.3
      c-0.3,0.2-0.5,0.5-0.5,0.8c-0.1,8.9-0.2,17.8-0.3,26.7C-96.1-16.3-94-16.3-94-17.7L-94-17.7z"/>
  </g>
</g>
<g id="Group_3566_1_" transform="translate(449.613 235.113)">
  <g id="Group_3565_1_">
    <path id="Path_3521_1_" class="st2" d="M404.8,399.5c0.1-8.9,0.2-17.8,0.3-26.7c-0.7,0.2-1.3,0.4-2,0.5
      c3.8,5.4,7.6,10.8,11.3,16.2l1.2-1.5c-6.5-2.3-13.3-3.4-20.2-3.3c0.2,0.7,0.4,1.3,0.5,2c5.6-3.7,11.6-6.6,17.9-8.7l-1.3-1.3
      c-1.6,5.2-3.9,10.2-7,14.7c-0.8,1.1,1.1,2.2,1.8,1.1c3.2-4.7,5.6-9.8,7.2-15.2c0.2-0.7-0.5-1.6-1.3-1.3c-6.5,2.2-12.7,5.2-18.4,9
      c-0.5,0.3-0.7,1-0.3,1.5c0.2,0.3,0.5,0.5,0.8,0.5c6.7-0.1,13.3,1,19.6,3.2c0.8,0.3,1.7-0.8,1.2-1.5c-3.8-5.4-7.6-10.8-11.3-16.2
      c-0.3-0.5-1-0.7-1.5-0.3c-0.3,0.2-0.5,0.5-0.5,0.8c-0.1,8.9-0.2,17.8-0.3,26.7C402.7,400.9,404.8,400.9,404.8,399.5L404.8,399.5z"
      />
  </g>
</g>
<g id="Group_3568" transform="translate(1477.036 179.261)">
  <g id="Group_3567">
    <path id="Path_3522" class="st2" d="M-184.9-22.3c0-8.5,0.1-16.9,0.1-25.4c-0.4,0.3-0.9,0.7-1.3,1c5.9,2.2,10.2,7.1,11.7,13.2
      l1.5-1.2c-6.4-4.2-13.9-6.4-21.5-6.5l0.3,2.1c7.9-1.5,15.8-3,23.7-4.4l-1.2-1.5c-3.6,4.8-7.6,9.1-12.1,13c-1,0.9,0.5,2.4,1.5,1.5
      c4.6-4,8.8-8.5,12.4-13.4c0.6-0.8-0.4-1.7-1.2-1.5c-7.9,1.5-15.8,3-23.7,4.4c-1.2,0.2-0.9,2,0.3,2.1c7.3,0.1,14.4,2.3,20.5,6.2
      c0.5,0.3,1.1,0.1,1.4-0.4c0.2-0.3,0.2-0.6,0.1-0.8c-1.7-6.7-6.6-12.2-13.1-14.7c-0.6-0.1-1.1,0.2-1.3,0.8c0,0.1,0,0.2,0,0.2
      c0,8.5-0.1,16.9-0.1,25.4C-187-20.9-184.9-20.9-184.9-22.3L-184.9-22.3z"/>
  </g>
</g>
<g id="Group_3570" transform="translate(1727.008 314.608)">
  <g id="Group_3569">
    <path id="Path_3523" class="st2" d="M-95.4-20.5c1.4-7.8,2.8-15.7,4.2-23.5c-0.6,0.1-1.3,0.2-1.9,0.3c3,4.8,5.3,10.1,6.7,15.6
      c0.3-0.4,0.7-0.9,1-1.3c-6,0-12-0.7-17.9-2.1c0.1,0.6,0.2,1.3,0.3,1.9c6.3-4.4,13.5-7.3,21.1-8.5l-1.2-1.5
      c-3.5,4.9-7.6,9.4-12.2,13.3c-1,0.9,0.5,2.4,1.5,1.5c4.7-4.1,9-8.7,12.6-13.8c0.6-0.8-0.4-1.7-1.2-1.5c-7.8,1.3-15.1,4.3-21.6,8.7
      c-0.5,0.3-0.6,0.9-0.4,1.4c0.1,0.2,0.4,0.4,0.7,0.5c6.1,1.5,12.3,2.2,18.5,2.2c0.6,0,1-0.5,1-1c0-0.1,0-0.2,0-0.3
      c-1.5-5.7-3.8-11.1-6.9-16.1c-0.4-0.7-1.8-0.7-1.9,0.3c-1.4,7.8-2.8,15.7-4.2,23.5C-97.7-19.7-95.7-19.2-95.4-20.5L-95.4-20.5z"/>
  </g>
</g>
<g id="Group_3572" transform="translate(1578.929 683.301)">
  <g id="Group_3571">
    <path id="Path_3524" class="st2" d="M-95.3-20.4c-0.4-7.9,0.3-15.9,1.9-23.7c-0.6,0.2-1.2,0.3-1.8,0.5c4.9,3.8,8,9.4,8.6,15.6l1-1
      c-6,0-12-1.5-17.2-4.5c-0.1,0.6-0.2,1.3-0.3,1.9c6.6-2.3,13.1-4.7,19.7-7l-1.2-1.5c-4.8,6.4-9.7,12.8-14.5,19.2
      c-0.8,1.1,1,2.1,1.8,1.1c4.8-6.4,9.7-12.8,14.5-19.2c0.5-0.7-0.4-1.8-1.2-1.5c-6.6,2.3-13.1,4.7-19.7,7c-0.8,0.3-1.1,1.5-0.3,1.9
      c5.6,3.2,11.9,4.8,18.3,4.8c0.6,0,1-0.4,1.1-1c-0.6-6.7-3.9-12.9-9.2-17.1c-0.4-0.4-1.1-0.4-1.5,0c-0.1,0.1-0.2,0.3-0.3,0.5
      c-1.7,8-2.4,16.1-2,24.3C-97.3-19.1-95.2-19.1-95.3-20.4L-95.3-20.4z"/>
  </g>
</g>
<g id="Group_3574" transform="translate(384.827 45.184)">
  <g id="Group_3573">
    <path id="Path_3525" class="st2" d="M674.6,379.4c0.3-6.8,1.8-13.4,4.4-19.7l-2.1-0.3c0.1,4.9,1,9.7,2.9,14.2l1.3-1.3
      c-5.1-0.7-9.9-3-13.7-6.4c-0.2,0.6-0.3,1.2-0.5,1.8c5.7-1,11.6-1.1,17.3-0.3c-0.1-0.6-0.2-1.3-0.3-1.9c-4.2,3.2-8.4,6.4-12.5,9.6
      c-1.1,0.8,0,2.6,1.1,1.8c4.2-3.2,8.4-6.4,12.5-9.6c0.6-0.5,0.8-1.8-0.3-1.9c-6.1-0.9-12.3-0.8-18.4,0.3c-0.8,0.1-1,1.3-0.5,1.8
      c4.1,3.7,9.1,6.1,14.6,6.9c0.7,0.1,1.6-0.5,1.3-1.3c-1.7-4.3-2.7-8.9-2.8-13.6c0-1.3-1.6-1.3-2.1-0.3c-2.7,6.4-4.2,13.3-4.5,20.2
      C672.5,380.8,674.6,380.8,674.6,379.4L674.6,379.4z"/>
  </g>
</g>
<g id="Group_3576" transform="translate(638.548 734.599)">
  <g id="Group_3575">
    <path id="Path_3526" class="st2" d="M-95.5-23.7c-0.3-6.9,0.5-13.8,2.5-20.4c-0.6,0.1-1.3,0.2-1.9,0.3c2.4,4.5,4.9,8.9,7.3,13.4
      l1.2-1.5c-5.6-1.1-11.2-2.3-16.8-3.4v2c7.5-3.1,14.9-6.2,22.4-9.3l-1.2-1.5c-2.7,3.6-5.3,7.3-8,10.9c-0.8,1.1,1,2.1,1.8,1.1
      c2.7-3.6,5.3-7.3,8-10.9c0.5-0.7-0.4-1.9-1.2-1.5c-7.5,3.1-14.9,6.2-22.4,9.3c-0.9,0.4-1.1,1.8,0,2c5.6,1.1,11.2,2.3,16.8,3.4
      c0.6,0.1,1.1-0.2,1.3-0.8c0.1-0.2,0-0.5-0.1-0.7c-2.4-4.5-4.9-8.9-7.3-13.4c-0.3-0.5-0.9-0.6-1.4-0.3c-0.2,0.1-0.4,0.4-0.5,0.6
      c-2,6.8-2.9,13.8-2.6,20.9C-97.5-22.4-95.4-22.4-95.5-23.7L-95.5-23.7z"/>
  </g>
</g>
</g>
</svg>
